<?xml version="1.0" standalone="no"?>
<!DOCTYPE svg PUBLIC "-//W3C//DTD SVG 1.1//EN" "http://www.w3.org/Graphics/SVG/1.1/DTD/svg11.dtd" >
<svg xmlns="http://www.w3.org/2000/svg" xmlns:xlink="http://www.w3.org/1999/xlink" version="1.1">
<metadata>
Created by FontForge 20161116 at Mon Feb 12 15:10:16 2007
 By Jimmy Warting
Copyright (c) This Font is designed by Ralph Oliver du Carrois, 2005. All rights reserved.
</metadata>
<defs>
<font id="UrbsDisplay-Regular" horiz-adv-x="458" >
  <font-face 
    font-family="Urbs Display-Regular"
    font-weight="400"
    font-stretch="normal"
    units-per-em="1000"
    panose-1="2 0 5 6 4 0 0 2 0 4"
    ascent="800"
    descent="-200"
    x-height="500"
    cap-height="700"
    bbox="-232 -207 1149 850"
    underline-thickness="75"
    underline-position="-135"
    stemh="71"
    stemv="86"
    unicode-range="U+0020-FB02"
  />
<missing-glyph horiz-adv-x="502" 
d="M65 0v700h372v-700h-372zM130 52h242v596h-242v-596z" />
    <glyph glyph-name="fi" unicode="fi" horiz-adv-x="544" 
d="M470 0h-85v437h-211v-437h-85v437h-70v63h70v61c0 86 66 147 172 147c78 0 131 -20 153 -28l-18 -59c-20 6 -56 21 -125 21c-70 0 -97 -37 -97 -72v-70h296v-500z" />
    <glyph glyph-name="fl" unicode="fl" horiz-adv-x="565" 
d="M275 437h-101v-437h-85v437h-70v63h70v61c0 86 59 147 165 147c66 0 121 -15 149 -24l67 16v-589c0 -35 7 -47 33 -47c8 0 13 1 21 3l12 -61c-14 -4 -31 -9 -60 -9c-46 0 -91 24 -91 115v513c-24 7 -64 17 -121 17c-70 0 -90 -37 -90 -72v-70h101v-63z" />
    <glyph glyph-name=".notdef" horiz-adv-x="502" 
d="M65 0v700h372v-700h-372zM130 52h242v596h-242v-596z" />
    <glyph glyph-name=".null" horiz-adv-x="0" 
 />
    <glyph glyph-name="CR" horiz-adv-x="260" 
 />
    <glyph glyph-name="space" unicode=" " horiz-adv-x="260" 
 />
    <glyph glyph-name="parenright" unicode=")" horiz-adv-x="298" 
d="M244 350c0 -189 -46 -324 -137 -460h-73c83 141 125 292 125 460s-42 319 -125 460h73c91 -136 137 -271 137 -460z" />
    <glyph glyph-name="asterisk" unicode="*" horiz-adv-x="468" 
d="M85 542l-44 10l29 85l41 -17c52 -21 101 -62 118 -82c-12 22 -36 81 -41 138l-4 44h90l-4 -44c-5 -57 -28 -117 -41 -138c18 17 66 60 119 82l41 17l27 -86l-43 -9c-24 -5 -49 -9 -73 -9c-30 0 -58 3 -71 5c23 -11 78 -43 115 -87l29 -34l-74 -52l-22 38
c-28 49 -46 110 -48 135c-4 -25 -18 -87 -48 -136l-23 -38l-72 54l29 33c37 42 91 78 114 87c-12 -2 -35 -4 -61 -4s-55 2 -83 8z" />
    <glyph glyph-name="plus" unicode="+" 
d="M409 275h-139v-152h-82v152h-140v75h140v153h82v-153h139v-75z" />
    <glyph glyph-name="comma" unicode="," horiz-adv-x="218" 
d="M164 0l-82 -160h-63l35 160l5 100h100z" />
    <glyph glyph-name="hyphen" unicode="-" horiz-adv-x="345" 
d="M311 275h-277v75h277v-75z" />
    <glyph glyph-name="period" unicode="." horiz-adv-x="218" 
d="M164 0h-110l5 100h100z" />
    <glyph glyph-name="slash" unicode="/" horiz-adv-x="435" 
d="M352 750l-169 -840h-67l170 840h66z" />
    <glyph glyph-name="zero" unicode="0" 
d="M329 351c0 220 -35 294 -100 294s-100 -74 -100 -294c0 -215 35 -297 100 -297s100 82 100 297zM414 351c0 -241 -50 -361 -185 -361s-185 121 -185 361c0 241 50 359 185 359s185 -118 185 -359z" />
    <glyph glyph-name="one" unicode="1" 
d="M396 0h-305v70h121v541l-114 -64l-37 62l151 91h85v-630h99v-70z" />
    <glyph glyph-name="two" unicode="2" 
d="M376 0h-320v75l84 128c59 90 152 218 152 324c0 63 -35 114 -100 114c-41 0 -77 -13 -111 -26l-23 60c24 11 78 35 141 35c118 0 179 -68 179 -192c-1 -111 -97 -253 -159 -346l-65 -97h222v-75z" />
    <glyph glyph-name="three" unicode="3" 
d="M372 192c0 -130 -75 -202 -190 -202c-50 0 -99 15 -126 29l23 62c27 -10 55 -19 101 -19c60 0 106 39 106 126c0 93 -32 144 -103 144h-32v68h22c81 0 100 86 100 126c0 79 -34 116 -84 116c-42 0 -78 -12 -106 -22l-21 60c15 7 72 30 125 30c103 0 171 -55 171 -183
c0 -84 -32 -131 -91 -156c61 -18 105 -68 105 -179z" />
    <glyph glyph-name="four" unicode="4" 
d="M416 156h-70v-156h-83v156h-200v71l105 483l75 -10l-95 -476h115l10 233h73v-233h70v-68z" />
    <glyph glyph-name="five" unicode="5" 
d="M365 632h-193v-215c147 -1 215 -66 215 -208c0 -162 -102 -219 -200 -219c-53 0 -96 13 -123 24l20 63c26 -8 57 -17 97 -17c80 0 120 64 120 144c0 108 -49 146 -131 146h-81v350h276v-68z" />
    <glyph glyph-name="six" unicode="6" 
d="M412 215c0 -163 -94 -225 -169 -225c-108 0 -185 62 -185 353c0 302 121 367 222 367c47 0 87 -15 108 -23l-22 -60c-26 10 -55 18 -91 18c-66 0 -124 -46 -131 -254c24 24 67 53 116 53c115 0 152 -94 152 -229zM248 377c-51 0 -91 -36 -105 -50c2 -235 48 -273 97 -273
c60 0 87 66 87 157c0 112 -22 166 -79 166z" />
    <glyph glyph-name="seven" unicode="7" 
d="M396 623l-191 -623h-90l194 625h-248v75h335v-77z" />
    <glyph glyph-name="eight" unicode="8" 
d="M332 185c0 106 -42 151 -127 151c-54 -30 -79 -82 -79 -151c0 -95 43 -131 103 -131s103 36 103 131zM320 529c0 74 -32 119 -91 119s-91 -45 -91 -119c0 -92 41 -131 110 -131c48 20 72 74 72 131zM417 185c0 -119 -68 -195 -188 -195s-188 73 -188 195
c0 95 51 146 103 176c-58 34 -89 95 -89 168c0 120 80 181 174 181s174 -50 174 -181c0 -67 -29 -122 -88 -155c68 -26 102 -104 102 -189z" />
    <glyph glyph-name="nine" unicode="9" 
d="M47 493c0 158 97 217 172 217c110 0 182 -62 182 -353c0 -302 -102 -367 -212 -367c-47 0 -82 15 -103 23l22 60c26 -10 50 -18 86 -18c67 0 116 47 121 264c-24 -24 -66 -53 -115 -53c-115 0 -153 92 -153 227zM212 333c50 0 90 35 104 49c-3 226 -43 264 -94 264
c-63 0 -90 -60 -90 -149c0 -112 23 -164 80 -164z" />
    <glyph glyph-name="colon" unicode=":" horiz-adv-x="218" 
d="M164 0h-110l5 100h100zM54 500h110l-5 -100h-105v100z" />
    <glyph glyph-name="semicolon" unicode=";" horiz-adv-x="218" 
d="M164 0l-82 -160h-63l35 160l5 100h100zM54 500h110l-5 -100h-100z" />
    <glyph glyph-name="less" unicode="&#x3c;" 
d="M409 105l-360 175v105l360 179v-92l-295 -136l295 -137v-94z" />
    <glyph glyph-name="equal" unicode="=" 
d="M409 175h-360v75h360v-75zM409 375h-360v75h360v-75z" />
    <glyph glyph-name="greater" unicode="&#x3e;" 
d="M409 280l-360 -175v94l295 137l-295 136v92l360 -179v-105z" />
    <glyph glyph-name="question" unicode="?" horiz-adv-x="388" 
d="M349 557c0 -85 -28 -116 -96 -194c-33 -38 -32 -59 -32 -155h-85c0 114 8 151 56 202c52 56 71 82 71 141c0 51 -30 87 -94 87c-31 0 -76 -12 -106 -26l-24 59c32 15 83 36 149 36c91 0 161 -57 161 -150zM235 0h-110l5 100h100z" />
    <glyph glyph-name="at" unicode="@" horiz-adv-x="809" 
d="M457 291l17 182c-6 7 -19 14 -37 14c-62 0 -114 -49 -114 -187c0 -71 23 -100 63 -100c59 0 68 62 71 91zM735 381c0 -121 -37 -265 -155 -265c-60 0 -104 42 -106 98c-14 -35 -48 -70 -104 -70c-45 0 -127 19 -127 159c0 190 98 241 172 241c43 0 70 -18 78 -29l12 21
h47l-26 -280c-1 -7 -1 -14 -1 -20c0 -59 32 -67 54 -67c50 0 73 78 73 212c0 197 -103 265 -242 265c-120 0 -253 -83 -253 -311c0 -196 110 -281 249 -281c49 0 75 7 103 14l17 -56c-35 -12 -72 -22 -130 -22c-166 0 -322 113 -322 345c0 282 196 375 336 375
c201 0 325 -114 325 -329z" />
    <glyph glyph-name="A" unicode="A" horiz-adv-x="488" 
d="M105 0h-86l169 700h115l166 -700h-89l-38 178h-199zM326 249l-83 386l-84 -386h167z" />
    <glyph glyph-name="B" unicode="B" horiz-adv-x="500" 
d="M363 199c0 98 -49 131 -122 131h-75v-263h86c47 0 111 17 111 132zM342 515c0 83 -37 119 -103 119h-73v-238h68c40 0 108 13 108 119zM452 202c0 -158 -94 -202 -205 -202h-168v700h158c109 0 192 -49 192 -178c0 -94 -60 -144 -100 -158c40 -10 123 -46 123 -162z" />
    <glyph glyph-name="C" unicode="C" horiz-adv-x="421" 
d="M376 79l20 -62c-32 -13 -75 -27 -122 -27c-143 0 -220 104 -220 361c0 282 89 359 235 359c40 0 80 -14 109 -28l-23 -62c-34 13 -60 21 -94 21c-85 0 -138 -53 -138 -287c0 -241 54 -295 132 -295c38 0 70 9 101 20z" />
    <glyph glyph-name="D" unicode="D" horiz-adv-x="529" 
d="M387 354c0 239 -85 278 -167 278h-53v-565h55c82 0 165 68 165 287zM475 354c0 -276 -125 -354 -253 -354h-143v700h143c116 0 253 -51 253 -346z" />
    <glyph glyph-name="E" unicode="E" horiz-adv-x="461" 
d="M407 0h-328v700h328v-68h-241v-236h216v-69h-216v-259h241v-68z" />
    <glyph glyph-name="F" unicode="F" horiz-adv-x="446" 
d="M407 631h-241v-247h216v-69h-216v-315h-87v700h328v-69z" />
    <glyph glyph-name="G" unicode="G" horiz-adv-x="498" 
d="M434 368v-350c-51 -16 -105 -28 -157 -28c-148 0 -223 73 -223 371c0 288 96 349 247 349c41 0 78 -9 117 -29l-23 -60c-35 13 -65 21 -102 21c-92 0 -150 -46 -150 -288c0 -252 54 -298 129 -298c31 0 57 3 79 8v237h-89v67h172z" />
    <glyph glyph-name="H" unicode="H" horiz-adv-x="555" 
d="M476 0h-87v322h-223v-322h-87v700h87v-308h223v308h87v-700z" />
    <glyph glyph-name="I" unicode="I" horiz-adv-x="245" 
d="M79 0v700h87v-700h-87z" />
    <glyph glyph-name="J" unicode="J" horiz-adv-x="388" 
d="M227 700h87v-449c0 -216 -51 -261 -178 -261c-32 0 -78 8 -107 15l15 64c29 -6 55 -9 86 -9c72 0 97 31 97 184v456z" />
    <glyph glyph-name="K" unicode="K" horiz-adv-x="491" 
d="M166 700v-299l202 299h93l-216 -315l179 -274c20 -31 38 -45 63 -56l-29 -60c-42 6 -81 32 -107 73l-185 287v-355h-87v700h87z" />
    <glyph glyph-name="L" unicode="L" horiz-adv-x="398" 
d="M389 0h-310v700h87v-628h223v-72z" />
    <glyph glyph-name="M" unicode="M" horiz-adv-x="698" 
d="M639 0h-79l-31 633l-125 -633h-89l-127 631l-30 -631h-79l37 700h133l113 -584l110 584h132z" />
    <glyph glyph-name="N" unicode="N" horiz-adv-x="553" 
d="M474 0h-132l-188 630v-630h-75v700h131l188 -629v629h76v-700z" />
    <glyph glyph-name="O" unicode="O" horiz-adv-x="546" 
d="M403 353c0 220 -54 293 -130 293s-130 -73 -130 -293c0 -215 54 -299 130 -299s130 84 130 299zM492 353c0 -235 -71 -363 -219 -363s-219 126 -219 363c0 235 66 357 219 357s219 -122 219 -357z" />
    <glyph glyph-name="P" unicode="P" horiz-adv-x="488" 
d="M355 483c0 100 -43 150 -114 150h-75v-301h75c56 0 114 42 114 151zM444 490c0 -152 -71 -226 -213 -226h-65v-264h-87v700h150c152 0 215 -83 215 -210z" />
    <glyph glyph-name="Q" unicode="Q" horiz-adv-x="546" 
d="M492 353c0 -201 -52 -323 -159 -355l47 -17c12 -4 24 -7 35 -7c17 0 32 2 49 4l14 -63c-16 -7 -34 -10 -53 -10c-27 0 -57 6 -88 19l-89 36v32c-131 13 -194 138 -194 361c0 235 66 357 219 357s219 -122 219 -357zM403 353c0 220 -54 293 -130 293s-130 -73 -130 -293
c0 -215 54 -299 130 -299s130 84 130 299z" />
    <glyph glyph-name="R" unicode="R" horiz-adv-x="501" 
d="M446 503c0 -102 -48 -169 -125 -198l111 -195c20 -36 32 -46 65 -55l-24 -60c-56 5 -87 32 -113 78l-122 217h-72v-290h-87v700h149c152 0 218 -81 218 -197zM357 496c0 94 -46 138 -117 138h-74v-276h74c56 0 117 29 117 138z" />
    <glyph glyph-name="S" unicode="S" horiz-adv-x="422" 
d="M387 191c0 -133 -90 -201 -209 -201c-60 0 -109 18 -138 32l29 64c27 -13 60 -26 106 -26c70 0 125 49 125 126c0 81 -31 109 -117 154c-81 43 -136 95 -136 189c0 122 84 181 198 181c56 0 111 -22 132 -35l-25 -59c-31 15 -69 26 -110 26c-63 0 -106 -39 -106 -104
c0 -67 37 -99 98 -130c91 -47 153 -101 153 -217z" />
    <glyph glyph-name="T" unicode="T" horiz-adv-x="419" 
d="M407 631h-154v-631h-87v631h-154v69h395v-69z" />
    <glyph glyph-name="U" unicode="U" horiz-adv-x="523" 
d="M449 700v-505c0 -135 -72 -205 -187 -205s-188 70 -188 205v505h87v-524c0 -70 41 -120 101 -120s100 50 100 120v524h87z" />
    <glyph glyph-name="V" unicode="V" horiz-adv-x="461" 
d="M442 700l-157 -700h-119l-147 700h82l128 -630l134 630h79z" />
    <glyph glyph-name="W" unicode="W" horiz-adv-x="652" 
d="M623 700l-79 -700h-125l-93 595l-96 -595h-124l-77 700h80l66 -635l101 635h102l102 -635l71 635h72z" />
    <glyph glyph-name="X" unicode="X" horiz-adv-x="484" 
d="M455 0h-88l-128 283l-129 -283h-81l170 362l-155 338h88l112 -257l114 257h82l-158 -331z" />
    <glyph glyph-name="Y" unicode="Y" horiz-adv-x="479" 
d="M465 700l-182 -375v-325h-90v325l-179 375h95l134 -298l134 298h88z" />
    <glyph glyph-name="Z" unicode="Z" horiz-adv-x="444" 
d="M400 627l-272 -558h262v-69h-351v73l273 558h-250v69h338v-73z" />
    <glyph glyph-name="bracketleft" unicode="[" horiz-adv-x="313" 
d="M269 -120h-190v940h190v-69h-110v-802h110v-69z" />
    <glyph glyph-name="backslash" unicode="\" horiz-adv-x="435" 
d="M285 -100l-170 850h77l170 -850h-77z" />
    <glyph glyph-name="bracketright" unicode="]" horiz-adv-x="313" 
d="M234 -120h-190v69h110v802h-110v69h190v-940z" />
    <glyph glyph-name="asciicircum" unicode="^" horiz-adv-x="475" 
d="M436 420h-93l-106 280l-112 -280h-86l142 340h114z" />
    <glyph glyph-name="underscore" unicode="_" horiz-adv-x="498" 
d="M501 -170h-504v75h504v-75z" />
    <glyph glyph-name="a" unicode="a" horiz-adv-x="465" 
d="M439 54l-20 -59c-39 3 -82 18 -95 69c-24 -40 -63 -72 -140 -72c-64 0 -140 35 -140 140c0 107 83 163 205 170l52 3v40c0 70 -21 97 -85 97c-41 0 -82 -13 -118 -27l-20 60c34 15 95 34 148 34c123 0 160 -64 160 -174v-211c0 -44 24 -62 53 -70zM213 56
c67 0 88 49 88 89v101l-67 -5c-55 -4 -103 -31 -103 -102c0 -59 31 -83 82 -83z" />
    <glyph glyph-name="b" unicode="b" horiz-adv-x="487" 
d="M433 282c0 -219 -59 -290 -218 -290c-72 0 -113 11 -141 17v691h85v-250c26 34 65 58 121 58c97 0 153 -77 153 -226zM254 446c-56 0 -95 -54 -95 -106v-283c15 -3 34 -4 66 -4c95 0 121 81 121 219c0 127 -28 174 -92 174z" />
    <glyph glyph-name="c" unicode="c" horiz-adv-x="391" 
d="M335 78l22 -59c-31 -14 -68 -27 -116 -27c-108 0 -187 57 -187 255c0 197 82 261 189 261c40 0 80 -12 114 -27l-22 -59c-33 14 -55 20 -89 20c-70 0 -105 -55 -105 -197c0 -145 49 -187 105 -187c38 0 63 10 89 20z" />
    <glyph glyph-name="d" unicode="d" horiz-adv-x="492" 
d="M54 238c0 179 67 270 221 270c22 0 41 -3 58 -6v198h85v-700h-70l-9 59c-26 -39 -67 -67 -128 -67c-97 0 -157 77 -157 246zM237 53c56 0 96 55 96 107v283c-14 3 -30 5 -62 5c-98 0 -130 -82 -130 -220c0 -127 32 -175 96 -175z" />
    <glyph glyph-name="e" unicode="e" horiz-adv-x="456" 
d="M404 229h-265c1 -146 67 -172 110 -172c35 0 61 4 108 20l20 -56c-35 -16 -85 -29 -128 -29c-83 0 -195 35 -195 258c0 182 76 258 187 258c109 0 163 -80 163 -229v-50zM238 449c-62 0 -91 -50 -98 -159h184c0 108 -27 159 -86 159z" />
    <glyph glyph-name="f" unicode="f" horiz-adv-x="299" 
d="M290 437h-116v-437h-85v437h-70v63h70v71c0 86 54 137 129 137c51 0 75 -10 97 -18l-18 -59c-20 6 -36 11 -63 11c-42 0 -60 -27 -60 -62v-80h116v-63z" />
    <glyph glyph-name="g" unicode="g" horiz-adv-x="492" 
d="M54 243c0 174 64 265 223 265c72 0 113 -11 141 -17v-490c0 -127 -83 -186 -190 -186c-57 0 -109 15 -143 28l20 61c46 -13 76 -20 111 -20c72 0 117 39 117 117v59c-26 -34 -66 -57 -122 -57c-97 0 -157 71 -157 240zM237 65c56 0 96 53 96 105v272c-15 3 -35 5 -66 5
c-95 0 -126 -80 -126 -214c0 -127 32 -168 96 -168z" />
    <glyph glyph-name="h" unicode="h" horiz-adv-x="507" 
d="M159 0h-85v700h85v-256c28 39 72 64 128 64c115 0 146 -85 146 -182v-326h-85v331c0 65 -26 111 -85 111c-68 0 -104 -53 -104 -132v-310z" />
    <glyph glyph-name="i" unicode="i" horiz-adv-x="233" 
d="M164 610h-95l-5 90h105zM159 0h-85v500h85v-500z" />
    <glyph glyph-name="j" unicode="j" horiz-adv-x="233" 
d="M159 500v-540c-1 -83 -39 -135 -124 -135c-36 0 -69 9 -95 19l20 61c21 -7 38 -11 60 -11c39 0 54 20 54 59v547h85zM164 610h-95l-5 90h105z" />
    <glyph glyph-name="k" unicode="k" horiz-adv-x="446" 
d="M159 700v-393l162 193h95l-173 -202l121 -189c20 -32 40 -45 63 -56l-33 -58c-41 6 -75 32 -101 73l-134 217v-285h-85v700h85z" />
    <glyph glyph-name="l" unicode="l" horiz-adv-x="254" 
d="M213 67l12 -61c-14 -4 -31 -9 -60 -9c-46 0 -91 24 -91 115v588h85v-589c0 -35 7 -47 33 -47c8 0 13 1 21 3z" />
    <glyph glyph-name="m" unicode="m" horiz-adv-x="741" 
d="M159 0h-85v500h70l7 -65c27 45 72 73 128 73c65 0 100 -30 118 -75c29 46 77 75 136 75c110 0 134 -85 134 -182v-326h-85v331c0 65 -14 111 -73 111c-61 0 -96 -53 -96 -132v-310h-85v331c0 65 -14 111 -73 111c-60 0 -95 -51 -96 -126v-316z" />
    <glyph glyph-name="n" unicode="n" horiz-adv-x="507" 
d="M159 0h-85v500h70l8 -66c28 46 75 74 135 74c115 0 146 -85 146 -182v-326h-85v331c0 65 -26 111 -85 111c-67 0 -102 -51 -104 -126v-316z" />
    <glyph glyph-name="o" unicode="o" horiz-adv-x="504" 
d="M450 251c0 -187 -85 -259 -198 -259s-198 75 -198 259c0 186 85 257 198 257s198 -71 198 -257zM363 251c0 142 -43 196 -111 196s-111 -54 -111 -196c0 -130 43 -198 111 -198s111 68 111 198z" />
    <glyph glyph-name="p" unicode="p" horiz-adv-x="487" 
d="M159 -170h-85v670h70l8 -59c26 39 67 67 128 67c97 0 153 -77 153 -226c0 -219 -59 -290 -218 -290c-22 0 -41 1 -56 3v-165zM254 447c-55 0 -93 -52 -95 -103v-287c15 -3 34 -5 66 -5c95 0 121 82 121 220c0 127 -28 175 -92 175z" />
    <glyph glyph-name="q" unicode="q" horiz-adv-x="492" 
d="M54 238c0 179 64 270 223 270c72 0 113 -11 141 -17v-661h-85v220c-26 -34 -66 -58 -122 -58c-97 0 -157 77 -157 246zM237 53c56 0 96 55 96 107v282c-15 3 -35 6 -66 6c-95 0 -126 -82 -126 -220c0 -127 32 -175 96 -175z" />
    <glyph glyph-name="r" unicode="r" horiz-adv-x="323" 
d="M159 0h-85v500h70l6 -70c22 46 55 78 104 78c22 0 38 -3 50 -6l-15 -79c-15 3 -25 4 -38 4c-82 0 -92 -105 -92 -159v-268z" />
    <glyph glyph-name="s" unicode="s" horiz-adv-x="390" 
d="M348 133c0 -90 -68 -141 -170 -141c-57 0 -108 17 -131 25l23 63c30 -10 64 -20 111 -20c59 0 78 38 78 68c0 46 -29 67 -69 84c-96 41 -136 78 -136 156c0 92 73 140 168 140c52 0 90 -14 120 -26l-23 -62c-27 10 -57 22 -102 22c-59 0 -77 -36 -77 -69
c0 -39 27 -59 69 -76c82 -33 139 -71 139 -164z" />
    <glyph glyph-name="t" unicode="t" horiz-adv-x="306" 
d="M273 437h-106v-315c0 -31 8 -64 50 -64c25 0 44 6 59 10l15 -59c-21 -7 -54 -17 -94 -17c-81 0 -115 51 -115 135v310h-65v63h66l5 110l79 10v-120h106v-63z" />
    <glyph glyph-name="u" unicode="u" horiz-adv-x="488" 
d="M69 500h85v-327c0 -73 19 -116 78 -116c68 0 97 54 97 133v310h85v-500h-70l-7 59c-25 -42 -66 -67 -122 -67c-111 0 -146 79 -146 182v326z" />
    <glyph glyph-name="v" unicode="v" horiz-adv-x="450" 
d="M421 500l-134 -500h-123l-135 500h89l110 -435l107 435h86z" />
    <glyph glyph-name="w" unicode="w" horiz-adv-x="678" 
d="M644 500l-99 -500h-131l-73 360l-79 -360h-128l-100 500h86l83 -439l99 439h85l93 -439l83 439h81z" />
    <glyph glyph-name="x" unicode="x" horiz-adv-x="437" 
d="M413 0h-99l-99 190l-101 -190h-90l145 258l-133 242h97l86 -167l88 167h90l-134 -234z" />
    <glyph glyph-name="y" unicode="y" horiz-adv-x="451" 
d="M422 500l-145 -544c-22 -83 -43 -131 -124 -131c-19 0 -45 4 -61 9l17 63c9 -2 23 -4 34 -4c32 0 41 13 50 46l16 61h-30l-150 500h90l115 -427l103 427h85z" />
    <glyph glyph-name="z" unicode="z" horiz-adv-x="401" 
d="M357 432l-222 -364h212v-68h-308v68l225 364h-205v68h298v-68z" />
    <glyph glyph-name="braceleft" unicode="{" horiz-adv-x="313" 
d="M198 231l-5 -249c0 -30 18 -42 47 -42c9 0 18 1 24 2l15 -61c-10 -2 -30 -6 -50 -6c-79 0 -114 38 -114 127l5 209c0 79 -37 89 -76 94v90c39 5 76 15 76 94l-5 209c0 89 35 127 114 127c20 0 40 -4 50 -6l-15 -61c-6 1 -15 2 -24 2c-29 0 -47 -12 -47 -42l5 -249
c0 -78 -53 -113 -100 -120c47 -5 100 -40 100 -118z" />
    <glyph glyph-name="bar" unicode="|" horiz-adv-x="348" 
d="M134 -100v850h80v-850h-80z" />
    <glyph glyph-name="braceright" unicode="}" horiz-adv-x="313" 
d="M120 -18l-5 249c0 78 54 113 100 118c-46 7 -100 42 -100 120l5 249c1 30 -17 42 -47 42c-9 0 -18 -1 -24 -2l-15 61c10 2 30 6 50 6c80 0 114 -38 114 -127l-5 -209c0 -79 37 -89 76 -94v-90c-39 -5 -76 -15 -76 -94l5 -209c0 -89 -34 -127 -114 -127c-20 0 -40 4 -50 6
l15 61c6 -1 15 -2 24 -2c30 0 48 12 47 42z" />
    <glyph glyph-name="asciitilde" unicode="~" 
d="M292 260c-56 0 -85 39 -130 39c-35 0 -65 -17 -93 -36l-31 57c41 39 83 56 128 56c56 0 85 -39 130 -39c35 0 65 17 93 36l31 -57c-41 -39 -83 -56 -128 -56z" />
    <glyph glyph-name="cent" unicode="&#xa2;" 
d="M300 -110h-80v106c-83 16 -139 82 -139 250c0 165 57 237 139 256v98h80v-95c29 -4 58 -14 84 -25l-22 -59c-33 14 -55 20 -89 20c-70 0 -105 -55 -105 -197c0 -145 49 -187 105 -187c38 0 63 10 89 20l22 -59c-24 -11 -51 -21 -84 -25v-103z" />
    <glyph glyph-name="fraction" unicode="&#x2044;" horiz-adv-x="218" 
d="M304 810l-312 -910h-78l312 910h78z" />
    <glyph glyph-name="quotesingle" unicode="'" horiz-adv-x="177" 
d="M138 610l-24 -160h-51l-24 160l3 90h93z" />
    <glyph glyph-name="guilsinglleft" unicode="&#x2039;" horiz-adv-x="293" 
d="M224 92h-51l-104 207l104 207h51l-63 -207z" />
    <glyph glyph-name="bullet" unicode="&#x2022;" horiz-adv-x="278" 
d="M214 235h-150v155h150v-155z" />
    <glyph glyph-name="circumflex" unicode="&#x2c6;" horiz-adv-x="322" 
d="M194 690l104 -75l-32 -39l-105 53l-105 -53l-32 39l104 75h66z" />
    <glyph glyph-name="breve" unicode="&#x2d8;" horiz-adv-x="314" 
d="M290 700c-9 -55 -49 -111 -133 -111s-124 56 -133 111h67c5 -35 35 -57 66 -57s61 22 66 57h67z" />
    <glyph glyph-name="dotaccent" unicode="&#x2d9;" horiz-adv-x="153" 
d="M124 610h-95l-5 90h105z" />
    <glyph glyph-name="ring" unicode="&#x2da;" horiz-adv-x="250" 
d="M165 634c0 26 -16 46 -41 46s-40 -22 -40 -46c0 -22 15 -46 40 -46s41 21 41 46zM226 633c0 -58 -48 -92 -102 -92s-100 35 -100 92c0 58 46 92 100 92s102 -32 102 -92z" />
    <glyph glyph-name="hungarumlaut" unicode="&#x2dd;" horiz-adv-x="358" 
d="M66 564l-43 37l104 99l62 -48zM207 564l-43 37l104 99l62 -48z" />
    <glyph glyph-name="ogonek" unicode="&#x2db;" horiz-adv-x="228" 
d="M184 -97l20 -48c-21 -9 -49 -18 -85 -18c-62 0 -95 36 -95 101c0 57 30 104 55 132h59c-31 -54 -42 -78 -42 -127c0 -35 14 -48 38 -48c15 0 33 3 50 8z" />
    <glyph glyph-name="germandbls" unicode="&#xdf;" horiz-adv-x="507" 
d="M468 156c0 -117 -77 -166 -166 -166c-31 0 -70 10 -88 20l27 55c18 -7 36 -12 59 -12c51 0 79 46 79 98c0 54 -19 77 -75 105c-53 27 -81 57 -81 115c0 95 111 109 111 194c0 36 -24 79 -89 79c-50 0 -86 -41 -86 -106v-538h-85v531c0 111 68 179 173 179
c111 0 162 -64 162 -150c0 -107 -106 -127 -106 -189c0 -19 8 -35 46 -52c60 -26 119 -68 119 -163z" />
    <glyph glyph-name="quotedbl" unicode="&#x22;" horiz-adv-x="322" 
d="M138 610l-24 -160h-51l-24 160l3 90h93zM283 610l-24 -160h-51l-24 160l3 90h93z" />
    <glyph glyph-name="dotlessi" unicode="&#x131;" horiz-adv-x="233" 
d="M159 0h-85v500h85v-500z" />
    <glyph glyph-name="quotedblright" unicode="&#x201d;" horiz-adv-x="365" 
d="M167 600l-70 -150h-58l25 150l5 100h95zM326 600l-70 -150h-58l25 150l5 100h95z" />
    <glyph glyph-name="quotedblleft" unicode="&#x201c;" horiz-adv-x="365" 
d="M199 550l70 150h58l-25 -150l-5 -100h-95zM40 550l70 150h58l-25 -150l-5 -100h-95z" />
    <glyph glyph-name="quoteleft" unicode="&#x2018;" horiz-adv-x="206" 
d="M39 550l70 150h58l-25 -150l-5 -100h-95z" />
    <glyph glyph-name="dieresis" unicode="&#xa8;" horiz-adv-x="318" 
d="M291 598h-81l-3 77h87zM108 598h-81l-3 77h87z" />
    <glyph glyph-name="quoteright" unicode="&#x2019;" horiz-adv-x="206" 
d="M167 600l-70 -150h-58l25 150l5 100h95z" />
    <glyph glyph-name="tilde" unicode="&#x2dc;" horiz-adv-x="328" 
d="M224 651c26 0 42 11 54 19l26 -44c-27 -25 -60 -41 -86 -41c-47 0 -75 34 -114 34c-26 0 -42 -11 -54 -19l-26 44c27 25 60 41 86 41c47 0 75 -34 114 -34z" />
    <glyph glyph-name="macron" unicode="&#xaf;" horiz-adv-x="303" 
d="M279 609h-255v66h255v-66z" />
    <glyph glyph-name="cedilla" unicode="&#xb8;" horiz-adv-x="227" 
d="M24 -170l20 49c15 -4 34 -7 49 -7c20 0 36 7 36 25c0 21 -16 29 -79 29l25 124h55l-5 -82c60 -7 78 -42 78 -74c0 -51 -44 -79 -99 -79c-24 0 -56 5 -80 15z" />
    <glyph glyph-name="approxequal" unicode="&#x2248;" 
d="M292 339c-56 0 -85 39 -130 39c-35 0 -65 -17 -93 -36l-31 57c41 39 83 56 128 56c56 0 85 -39 130 -39c35 0 65 17 93 36l31 -57c-41 -39 -83 -56 -128 -56zM292 168c-56 0 -85 39 -130 39c-35 0 -65 -17 -93 -36l-31 57c41 39 83 56 128 56c56 0 85 -39 130 -39
c35 0 65 17 93 36l31 -57c-41 -39 -83 -56 -128 -56z" />
    <glyph glyph-name="guilsinglright" unicode="&#x203a;" horiz-adv-x="293" 
d="M120 92h-51l63 207l-63 207h51l104 -207z" />
    <glyph glyph-name="guillemotleft" unicode="&#xab;" horiz-adv-x="453" 
d="M224 92h-51l-104 207l104 207h51l-63 -207zM384 92h-51l-104 207l104 207h51l-63 -207z" />
    <glyph glyph-name="guillemotright" unicode="&#xbb;" horiz-adv-x="453" 
d="M280 92h-51l63 207l-63 207h51l104 -207zM120 92h-51l63 207l-63 207h51l104 -207z" />
    <glyph glyph-name="endash" unicode="&#x2013;" horiz-adv-x="538" 
d="M459 275h-380v75h380v-75z" />
    <glyph glyph-name="emdash" unicode="&#x2014;" horiz-adv-x="593" 
d="M534 275h-475v75h475v-75z" />
    <glyph glyph-name="periodcentered" unicode="&#xb7;" horiz-adv-x="218" 
d="M159 260h-100v100h100v-100z" />
    <glyph glyph-name="ellipsis" unicode="&#x2026;" horiz-adv-x="678" 
d="M164 0h-110l5 100h100zM394 0h-110l5 100h100zM624 0h-110l5 100h100z" />
    <glyph glyph-name="acute" unicode="&#xb4;" horiz-adv-x="249" 
d="M54 576l-26 41l157 83l40 -66z" />
    <glyph glyph-name="grave" unicode="`" horiz-adv-x="245" 
d="M221 617l-26 -41l-171 58l40 66z" />
    <glyph glyph-name="logicalnot" unicode="&#xac;" 
d="M410 116h-85v159h-277v75h362v-234z" />
    <glyph glyph-name="quotedblbase" unicode="&#x201e;" horiz-adv-x="365" 
d="M167 0l-70 -150h-58l25 150l5 100h95zM326 0l-70 -150h-58l25 150l5 100h95z" />
    <glyph glyph-name="quotesinglbase" unicode="&#x201a;" horiz-adv-x="206" 
d="M167 0l-70 -150h-58l25 150l5 100h95z" />
    <glyph glyph-name="aacute" unicode="&#xe1;" horiz-adv-x="465" 
d="M439 54l-20 -59c-39 3 -82 18 -95 69c-24 -40 -63 -72 -140 -72c-64 0 -140 35 -140 140c0 107 83 163 205 170l52 3v40c0 70 -21 97 -85 97c-41 0 -82 -13 -118 -27l-20 60c34 15 95 34 148 34c123 0 160 -64 160 -174v-211c0 -44 24 -62 53 -70zM213 56
c67 0 88 49 88 89v101l-67 -5c-55 -4 -103 -31 -103 -102c0 -59 31 -83 82 -83zM164 576l-26 41l157 83l40 -66z" />
    <glyph glyph-name="agrave" unicode="&#xe0;" horiz-adv-x="465" 
d="M439 54l-20 -59c-39 3 -82 18 -95 69c-24 -40 -63 -72 -140 -72c-64 0 -140 35 -140 140c0 107 83 163 205 170l52 3v40c0 70 -21 97 -85 97c-41 0 -82 -13 -118 -27l-20 60c34 15 95 34 148 34c123 0 160 -64 160 -174v-211c0 -44 24 -62 53 -70zM213 56
c67 0 88 49 88 89v101l-67 -5c-55 -4 -103 -31 -103 -102c0 -59 31 -83 82 -83zM311 617l-26 -41l-171 58l40 66z" />
    <glyph glyph-name="acircumflex" unicode="&#xe2;" horiz-adv-x="465" 
d="M439 54l-20 -59c-39 3 -82 18 -95 69c-24 -40 -63 -72 -140 -72c-64 0 -140 35 -140 140c0 107 83 163 205 170l52 3v40c0 70 -21 97 -85 97c-41 0 -82 -13 -118 -27l-20 60c34 15 95 34 148 34c123 0 160 -64 160 -174v-211c0 -44 24 -62 53 -70zM213 56
c67 0 88 49 88 89v101l-67 -5c-55 -4 -103 -31 -103 -102c0 -59 31 -83 82 -83zM260 690l104 -75l-32 -39l-105 53l-105 -53l-32 39l104 75h66z" />
    <glyph glyph-name="adieresis" unicode="&#xe4;" horiz-adv-x="465" 
d="M439 54l-20 -59c-39 3 -82 18 -95 69c-24 -40 -63 -72 -140 -72c-64 0 -140 35 -140 140c0 107 83 163 205 170l52 3v40c0 70 -21 97 -85 97c-41 0 -82 -13 -118 -27l-20 60c34 15 95 34 148 34c123 0 160 -64 160 -174v-211c0 -44 24 -62 53 -70zM213 56
c67 0 88 49 88 89v101l-67 -5c-55 -4 -103 -31 -103 -102c0 -59 31 -83 82 -83zM363 598h-81l-3 77h87zM180 598h-81l-3 77h87z" />
    <glyph glyph-name="atilde" unicode="&#xe3;" horiz-adv-x="465" 
d="M439 54l-20 -59c-39 3 -82 18 -95 69c-24 -40 -63 -72 -140 -72c-64 0 -140 35 -140 140c0 107 83 163 205 170l52 3v40c0 70 -21 97 -85 97c-41 0 -82 -13 -118 -27l-20 60c34 15 95 34 148 34c123 0 160 -64 160 -174v-211c0 -44 24 -62 53 -70zM213 56
c67 0 88 49 88 89v101l-67 -5c-55 -4 -103 -31 -103 -102c0 -59 31 -83 82 -83zM287 651c26 0 42 11 54 19l26 -44c-27 -25 -60 -41 -86 -41c-47 0 -75 34 -114 34c-26 0 -42 -11 -54 -19l-26 44c27 25 60 41 86 41c47 0 75 -34 114 -34z" />
    <glyph glyph-name="aring" unicode="&#xe5;" horiz-adv-x="465" 
d="M268 634c0 26 -16 46 -41 46s-40 -22 -40 -46c0 -22 15 -46 40 -46s41 21 41 46zM329 633c0 -58 -48 -92 -102 -92s-100 35 -100 92c0 58 46 92 100 92s102 -32 102 -92zM439 54l-20 -59c-39 3 -82 18 -95 69c-24 -40 -63 -72 -140 -72c-64 0 -140 35 -140 140
c0 107 83 163 205 170l52 3v40c0 70 -21 97 -85 97c-41 0 -82 -13 -118 -27l-20 60c34 15 95 34 148 34c123 0 160 -64 160 -174v-211c0 -44 24 -62 53 -70zM213 56c67 0 88 49 88 89v101l-67 -5c-55 -4 -103 -31 -103 -102c0 -59 31 -83 82 -83z" />
    <glyph glyph-name="eacute" unicode="&#xe9;" horiz-adv-x="456" 
d="M404 229h-265c1 -146 67 -172 110 -172c35 0 61 4 108 20l20 -56c-35 -16 -85 -29 -128 -29c-83 0 -195 35 -195 258c0 182 76 258 187 258c109 0 163 -80 163 -229v-50zM238 449c-62 0 -91 -50 -98 -159h184c0 108 -27 159 -86 159zM164 576l-26 41l157 83l40 -66z" />
    <glyph glyph-name="egrave" unicode="&#xe8;" horiz-adv-x="456" 
d="M404 229h-265c1 -146 67 -172 110 -172c35 0 61 4 108 20l20 -56c-35 -16 -85 -29 -128 -29c-83 0 -195 35 -195 258c0 182 76 258 187 258c109 0 163 -80 163 -229v-50zM238 449c-62 0 -91 -50 -98 -159h184c0 108 -27 159 -86 159zM332 617l-26 -41l-171 58l40 66z" />
    <glyph glyph-name="ecircumflex" unicode="&#xea;" horiz-adv-x="456" 
d="M404 229h-265c1 -146 67 -172 110 -172c35 0 61 4 108 20l20 -56c-35 -16 -85 -29 -128 -29c-83 0 -195 35 -195 258c0 182 76 258 187 258c109 0 163 -80 163 -229v-50zM238 449c-62 0 -91 -50 -98 -159h184c0 108 -27 159 -86 159zM266 690l104 -75l-32 -39l-105 53
l-105 -53l-32 39l104 75h66z" />
    <glyph glyph-name="edieresis" unicode="&#xeb;" horiz-adv-x="456" 
d="M404 229h-265c1 -146 67 -172 110 -172c35 0 61 4 108 20l20 -56c-35 -16 -85 -29 -128 -29c-83 0 -195 35 -195 258c0 182 76 258 187 258c109 0 163 -80 163 -229v-50zM238 449c-62 0 -91 -50 -98 -159h184c0 108 -27 159 -86 159zM369 598h-81l-3 77h87zM186 598h-81
l-3 77h87z" />
    <glyph glyph-name="iacute" unicode="&#xed;" horiz-adv-x="233" 
d="M159 0h-85v500h85v-500zM50 576l-26 41l157 83l40 -66z" />
    <glyph glyph-name="igrave" unicode="&#xec;" horiz-adv-x="233" 
d="M159 0h-85v500h85v-500zM212 617l-26 -41l-171 58l40 66z" />
    <glyph glyph-name="icircumflex" unicode="&#xee;" horiz-adv-x="233" 
d="M159 0h-85v500h85v-500zM150 690l104 -75l-32 -39l-105 53l-105 -53l-32 39l94 75h76z" />
    <glyph glyph-name="idieresis" unicode="&#xef;" horiz-adv-x="233" 
d="M159 0h-85v500h85v-500zM249 598h-81l-3 77h87zM66 598h-81l-3 77h87z" />
    <glyph glyph-name="paragraph" unicode="&#xb6;" horiz-adv-x="498" 
d="M434 0h-75v700h75v-700zM294 700v-700h-78v374c-72 3 -147 53 -147 159c0 131 90 167 166 167h59z" />
    <glyph glyph-name="mu" unicode="&#xb5;" horiz-adv-x="488" 
d="M154 -170h-85v670h85v-327c0 -73 19 -116 78 -116c68 0 97 54 97 133v310h85v-500h-70l-7 59c-25 -42 -63 -67 -112 -67c-31 0 -55 7 -71 22v-184z" />
    <glyph glyph-name="ccedilla" unicode="&#xe7;" horiz-adv-x="391" 
d="M158 -170l20 49c15 -4 34 -7 49 -7c20 0 36 7 36 25c0 21 -16 29 -79 29l14 70c-86 14 -144 80 -144 251c0 197 82 261 189 261c40 0 80 -12 114 -27l-22 -59c-33 14 -55 20 -89 20c-70 0 -105 -55 -105 -197c0 -145 49 -187 105 -187c38 0 63 10 89 20l22 -59
c-27 -12 -58 -23 -97 -26l-1 -25c60 -7 78 -42 78 -74c0 -51 -44 -79 -99 -79c-24 0 -56 5 -80 15z" />
    <glyph glyph-name="florin" unicode="&#x192;" horiz-adv-x="299" 
d="M-52 -167l18 59c20 -6 36 -11 63 -11c42 0 60 27 60 62v494h-70v63h70v71c0 86 54 137 129 137c51 0 75 -10 97 -18l-18 -59c-20 6 -36 11 -63 11c-42 0 -60 -27 -60 -62v-80h116v-63h-116v-485c0 -86 -54 -137 -129 -137c-51 0 -75 10 -97 18z" />
    <glyph glyph-name="minus" unicode="&#x2212;" 
d="M409 275h-360v75h360v-75z" />
    <glyph glyph-name="divide" unicode="&#xf7;" 
d="M409 275h-360v75h360v-75zM284 62h-110l5 100h100zM174 562h110l-5 -100h-105v100z" />
    <glyph glyph-name="ntilde" unicode="&#xf1;" horiz-adv-x="507" 
d="M159 0h-85v500h70l8 -66c28 46 75 74 135 74c115 0 146 -85 146 -182v-326h-85v331c0 65 -26 111 -85 111c-67 0 -102 -51 -104 -126v-316zM326 651c26 0 42 11 54 19l26 -44c-27 -25 -60 -41 -86 -41c-47 0 -75 34 -114 34c-26 0 -42 -11 -54 -19l-26 44
c27 25 60 41 86 41c47 0 75 -34 114 -34z" />
    <glyph glyph-name="partialdiff" unicode="&#x2202;" horiz-adv-x="462" 
d="M49 225c0 135 39 239 154 239c48 0 89 -28 113 -52c-6 194 -51 235 -125 235c-36 0 -65 -8 -91 -18l-22 57c21 8 62 24 109 24c110 0 216 -50 216 -343c0 -292 -69 -377 -185 -377c-89 0 -169 57 -169 235zM222 54c49 0 93 53 95 294c-14 15 -53 49 -102 49
c-57 0 -79 -64 -79 -176c0 -109 20 -167 86 -167z" />
    <glyph glyph-name="scaron" unicode="&#x161;" horiz-adv-x="390" 
d="M348 133c0 -90 -68 -141 -170 -141c-57 0 -108 17 -131 25l23 63c30 -10 64 -20 111 -20c59 0 78 38 78 68c0 46 -29 67 -69 84c-96 41 -136 78 -136 156c0 92 73 140 168 140c52 0 90 -14 120 -26l-23 -62c-27 10 -57 22 -102 22c-59 0 -77 -36 -77 -69
c0 -39 27 -59 69 -76c82 -33 139 -71 139 -164zM347 661l-104 -75h-66l-104 75l32 39l105 -53l105 53z" />
    <glyph glyph-name="oacute" unicode="&#xf3;" horiz-adv-x="504" 
d="M450 251c0 -187 -85 -259 -198 -259s-198 75 -198 259c0 186 85 257 198 257s198 -71 198 -257zM363 251c0 142 -43 196 -111 196s-111 -54 -111 -196c0 -130 43 -198 111 -198s111 68 111 198zM183 576l-26 41l157 83l40 -66z" />
    <glyph glyph-name="ograve" unicode="&#xf2;" horiz-adv-x="504" 
d="M450 251c0 -187 -85 -259 -198 -259s-198 75 -198 259c0 186 85 257 198 257s198 -71 198 -257zM363 251c0 142 -43 196 -111 196s-111 -54 -111 -196c0 -130 43 -198 111 -198s111 68 111 198zM351 617l-26 -41l-171 58l40 66z" />
    <glyph glyph-name="ocircumflex" unicode="&#xf4;" horiz-adv-x="504" 
d="M450 251c0 -187 -85 -259 -198 -259s-198 75 -198 259c0 186 85 257 198 257s198 -71 198 -257zM363 251c0 142 -43 196 -111 196s-111 -54 -111 -196c0 -130 43 -198 111 -198s111 68 111 198zM283 690l104 -75l-32 -39l-105 53l-105 -53l-32 39l104 75h66z" />
    <glyph glyph-name="odieresis" unicode="&#xf6;" horiz-adv-x="504" 
d="M450 251c0 -187 -85 -259 -198 -259s-198 75 -198 259c0 186 85 257 198 257s198 -71 198 -257zM363 251c0 142 -43 196 -111 196s-111 -54 -111 -196c0 -130 43 -198 111 -198s111 68 111 198zM383 598h-81l-3 77h87zM200 598h-81l-3 77h87z" />
    <glyph glyph-name="otilde" unicode="&#xf5;" horiz-adv-x="504" 
d="M450 251c0 -187 -85 -259 -198 -259s-198 75 -198 259c0 186 85 257 198 257s198 -71 198 -257zM363 251c0 142 -43 196 -111 196s-111 -54 -111 -196c0 -130 43 -198 111 -198s111 68 111 198zM312 651c26 0 42 11 54 19l26 -44c-27 -25 -60 -41 -86 -41
c-47 0 -75 34 -114 34c-26 0 -42 -11 -54 -19l-26 44c27 25 60 41 86 41c47 0 75 -34 114 -34z" />
    <glyph glyph-name="brokenbar" unicode="&#xa6;" horiz-adv-x="348" 
d="M134 -100v340h80v-340h-80zM134 410v340h80v-340h-80z" />
    <glyph glyph-name="multiply" unicode="&#xd7;" 
d="M346 137l-117 116l-117 -116l-56 56l116 117l-116 117l56 56l117 -116l117 116l56 -56l-116 -117l116 -117z" />
    <glyph glyph-name="plusminus" unicode="&#xb1;" 
d="M409 275h-139v-122h-82v122h-140v75h140v153h82v-153h139v-75zM409 0h-360v75h360v-75z" />
    <glyph glyph-name="zcaron" unicode="&#x17e;" horiz-adv-x="401" 
d="M357 432l-222 -364h212v-68h-308v68l225 364h-205v68h298v-68zM346 661l-104 -75h-66l-104 75l32 39l105 -53l105 53z" />
    <glyph glyph-name="uacute" unicode="&#xfa;" horiz-adv-x="478" 
d="M69 500h85v-327c0 -73 19 -116 78 -116c68 0 97 54 97 133v310h85v-500h-70l-7 59c-25 -42 -66 -67 -122 -67c-111 0 -146 79 -146 182v326zM178 576l-26 41l157 83l40 -66z" />
    <glyph glyph-name="ugrave" unicode="&#xf9;" horiz-adv-x="478" 
d="M69 500h85v-327c0 -73 19 -116 78 -116c68 0 97 54 97 133v310h85v-500h-70l-7 59c-25 -42 -66 -67 -122 -67c-111 0 -146 79 -146 182v326zM342 617l-26 -41l-171 58l40 66z" />
    <glyph glyph-name="ucircumflex" unicode="&#xfb;" horiz-adv-x="478" 
d="M69 500h85v-327c0 -73 19 -116 78 -116c68 0 97 54 97 133v310h85v-500h-70l-7 59c-25 -42 -66 -67 -122 -67c-111 0 -146 79 -146 182v326zM276 690l104 -75l-32 -39l-105 53l-105 -53l-32 39l104 75h66z" />
    <glyph glyph-name="udieresis" unicode="&#xfc;" horiz-adv-x="478" 
d="M69 500h85v-327c0 -73 19 -116 78 -116c68 0 97 54 97 133v310h85v-500h-70l-7 59c-25 -42 -66 -67 -122 -67c-111 0 -146 79 -146 182v326zM375 598h-81l-3 77h87zM192 598h-81l-3 77h87z" />
    <glyph glyph-name="dagger" unicode="&#x2020;" 
d="M270 0h-80v425h-141v75h141v200h80v-200h140v-75h-140v-425z" />
    <glyph glyph-name="daggerdbl" unicode="&#x2021;" 
d="M270 0h-80v210h-141v75h141v140h-141v75h141v200h80v-200h140v-75h-140v-140h140v-75h-140v-210z" />
    <glyph glyph-name="notequal" unicode="&#x2260;" 
d="M409 175h-222l-68 -115l-59 33l48 82h-59v75h104l74 125h-178v75h222l68 115l60 -32l-49 -83h59v-75h-104l-74 -125h178v-75z" />
    <glyph glyph-name="Oslash" unicode="&#xd8;" horiz-adv-x="546" 
d="M492 353c0 -235 -71 -363 -219 -363c-24 0 -47 4 -67 10l-27 -92l-65 18l33 108c-63 56 -93 164 -93 319c0 235 66 357 219 357c27 0 52 -4 74 -12l28 92l63 -15l-34 -112c60 -55 88 -159 88 -310zM143 353c0 -102 12 -175 33 -223l151 500c-16 11 -35 16 -54 16
c-76 0 -130 -73 -130 -293zM403 353c0 96 -11 164 -29 210l-148 -496c15 -9 30 -13 47 -13c76 0 130 84 130 299z" />
    <glyph glyph-name="oslash" unicode="&#xf8;" horiz-adv-x="504" 
d="M450 251c0 -187 -85 -259 -198 -259c-18 0 -35 2 -51 6l-29 -87l-62 17l32 96c-54 37 -88 110 -88 227c0 186 85 257 198 257c17 0 34 -2 50 -6l28 84l62 -17l-31 -92c54 -36 89 -108 89 -226zM363 251c0 68 -10 116 -28 148l-114 -341c9 -4 20 -5 31 -5
c68 0 111 68 111 198zM141 251c0 -64 10 -112 28 -145l113 337c-10 2 -20 4 -30 4c-68 0 -111 -54 -111 -196z" />
    <glyph glyph-name="Iacute" unicode="&#xcd;" horiz-adv-x="245" 
d="M53 742l-22 41l157 67l40 -66zM79 0v700h87v-700h-87z" />
    <glyph glyph-name="Icircumflex" unicode="&#xce;" horiz-adv-x="245" 
d="M155 840l104 -59l-32 -40l-105 43l-105 -43l-32 40l104 59h66zM79 0v700h87v-700h-87z" />
    <glyph glyph-name="Idieresis" unicode="&#xcf;" horiz-adv-x="245" 
d="M255 760h-81l-3 75h87zM72 760h-81l-3 75h87zM79 0v700h87v-700h-87z" />
    <glyph glyph-name="Igrave" unicode="&#xcc;" horiz-adv-x="245" 
d="M223 783l-22 -41l-175 42l40 66zM79 0v700h87v-700h-87z" />
    <glyph glyph-name="Odieresis" unicode="&#xd6;" horiz-adv-x="546" 
d="M405 760h-81l-3 75h87zM222 760h-81l-3 75h87zM403 353c0 220 -54 293 -130 293s-130 -73 -130 -293c0 -215 54 -299 130 -299s130 84 130 299zM492 353c0 -235 -71 -363 -219 -363s-219 126 -219 363c0 235 66 357 219 357s219 -122 219 -357z" />
    <glyph glyph-name="Otilde" unicode="&#xd5;" horiz-adv-x="546" 
d="M333 801c26 0 42 11 54 19l26 -38c-27 -25 -60 -41 -86 -41c-47 0 -75 34 -114 34c-26 0 -42 -11 -54 -19l-26 38c27 25 60 41 86 41c47 0 75 -34 114 -34zM403 353c0 220 -54 293 -130 293s-130 -73 -130 -293c0 -215 54 -299 130 -299s130 84 130 299zM492 353
c0 -235 -71 -363 -219 -363s-219 126 -219 363c0 235 66 357 219 357s219 -122 219 -357z" />
    <glyph glyph-name="Oacute" unicode="&#xd3;" horiz-adv-x="546" 
d="M199 742l-22 41l157 67l40 -66zM403 353c0 220 -54 293 -130 293s-130 -73 -130 -293c0 -215 54 -299 130 -299s130 84 130 299zM492 353c0 -235 -71 -363 -219 -363s-219 126 -219 363c0 235 66 357 219 357s219 -122 219 -357z" />
    <glyph glyph-name="Ocircumflex" unicode="&#xd4;" horiz-adv-x="546" 
d="M305 840l104 -59l-32 -40l-105 43l-105 -43l-32 40l104 59h66zM403 353c0 220 -54 293 -130 293s-130 -73 -130 -293c0 -215 54 -299 130 -299s130 84 130 299zM492 353c0 -235 -71 -363 -219 -363s-219 126 -219 363c0 235 66 357 219 357s219 -122 219 -357z" />
    <glyph glyph-name="Ograve" unicode="&#xd2;" horiz-adv-x="546" 
d="M369 783l-22 -41l-175 42l40 66zM403 353c0 220 -54 293 -130 293s-130 -73 -130 -293c0 -215 54 -299 130 -299s130 84 130 299zM492 353c0 -235 -71 -363 -219 -363s-219 126 -219 363c0 235 66 357 219 357s219 -122 219 -357z" />
    <glyph glyph-name="Eacute" unicode="&#xc9;" horiz-adv-x="461" 
d="M173 742l-22 41l157 67l40 -66zM407 0h-328v700h328v-68h-241v-236h216v-69h-216v-259h241v-68z" />
    <glyph glyph-name="Ecircumflex" unicode="&#xca;" horiz-adv-x="461" 
d="M273 840l104 -59l-32 -40l-105 43l-105 -43l-32 40l104 59h66zM407 0h-328v700h328v-68h-241v-236h216v-69h-216v-259h241v-68z" />
    <glyph glyph-name="Edieresis" unicode="&#xcb;" horiz-adv-x="461" 
d="M373 760h-81l-3 75h87zM190 760h-81l-3 75h87zM407 0h-328v700h328v-68h-241v-236h216v-69h-216v-259h241v-68z" />
    <glyph glyph-name="Egrave" unicode="&#xc8;" horiz-adv-x="461" 
d="M340 783l-22 -41l-175 42l40 66zM407 0h-328v700h328v-68h-241v-236h216v-69h-216v-259h241v-68z" />
    <glyph glyph-name="Udieresis" unicode="&#xdc;" horiz-adv-x="523" 
d="M393 760h-81l-3 75h87zM210 760h-81l-3 75h87zM449 700v-505c0 -135 -72 -205 -187 -205s-188 70 -188 205v505h87v-524c0 -70 41 -120 101 -120s100 50 100 120v524h87z" />
    <glyph glyph-name="Uacute" unicode="&#xda;" horiz-adv-x="523" 
d="M206 742l-22 41l157 67l40 -66zM449 700v-505c0 -135 -72 -205 -187 -205s-188 70 -188 205v505h87v-524c0 -70 41 -120 101 -120s100 50 100 120v524h87z" />
    <glyph glyph-name="Ucircumflex" unicode="&#xdb;" horiz-adv-x="523" 
d="M296 840l104 -59l-32 -40l-105 43l-105 -43l-32 40l104 59h66zM449 700v-505c0 -135 -72 -205 -187 -205s-188 70 -188 205v505h87v-524c0 -70 41 -120 101 -120s100 50 100 120v524h87z" />
    <glyph glyph-name="Ugrave" unicode="&#xd9;" horiz-adv-x="523" 
d="M359 783l-22 -41l-175 42l40 66zM449 700v-505c0 -135 -72 -205 -187 -205s-188 70 -188 205v505h87v-524c0 -70 41 -120 101 -120s100 50 100 120v524h87z" />
    <glyph glyph-name="Ntilde" unicode="&#xd1;" horiz-adv-x="553" 
d="M339 801c26 0 42 11 54 19l26 -39c-27 -25 -60 -41 -86 -41c-47 0 -75 34 -114 34c-26 0 -42 -11 -54 -19l-26 39c27 25 60 41 86 41c47 0 75 -34 114 -34zM474 0h-132l-188 630v-630h-75v700h131l188 -629v629h76v-700z" />
    <glyph glyph-name="Ccedilla" unicode="&#xc7;" horiz-adv-x="411" 
d="M181 -170l20 49c15 -4 34 -7 49 -7c20 0 36 7 36 25c0 21 -16 29 -79 29l13 68c-115 20 -176 127 -176 357c0 282 89 359 235 359c40 0 80 -14 109 -28l-23 -62c-34 13 -60 21 -94 21c-85 0 -138 -53 -138 -287c0 -241 54 -295 132 -295c38 0 70 9 101 20l20 -62
c-28 -11 -63 -23 -103 -26l-1 -23c60 -7 78 -42 78 -74c0 -51 -44 -79 -99 -79c-24 0 -56 5 -80 15z" />
    <glyph glyph-name="Adieresis" unicode="&#xc4;" horiz-adv-x="488" 
d="M378 750h-81l-3 75h87zM195 750h-81l-3 75h87zM105 0h-86l169 700h115l166 -700h-89l-38 178h-199zM326 249l-83 386l-84 -386h167z" />
    <glyph glyph-name="Agrave" unicode="&#xc0;" horiz-adv-x="488" 
d="M349 783l-22 -41l-175 42l40 66zM105 0h-86l169 700h115l166 -700h-89l-38 178h-199zM326 249l-83 386l-84 -386h167z" />
    <glyph glyph-name="Atilde" unicode="&#xc3;" horiz-adv-x="488" 
d="M308 801c26 0 42 11 54 19l26 -39c-27 -25 -60 -41 -86 -41c-47 0 -75 34 -114 34c-26 0 -42 -11 -54 -19l-26 39c27 25 60 41 86 41c47 0 75 -34 114 -34zM105 0h-86l169 700h115l166 -700h-89l-38 178h-199zM326 249l-83 386l-84 -386h167z" />
    <glyph glyph-name="Acircumflex" unicode="&#xc2;" horiz-adv-x="488" 
d="M278 840l104 -59l-32 -40l-105 43l-105 -43l-32 40l104 59h66zM105 0h-86l169 700h115l166 -700h-89l-38 178h-199zM326 249l-83 386l-84 -386h167z" />
    <glyph glyph-name="Aacute" unicode="&#xc1;" horiz-adv-x="488" 
d="M173 742l-22 41l157 67l40 -66zM105 0h-86l169 700h115l166 -700h-89l-38 178h-191zM326 249l-83 386l-84 -386h167z" />
    <glyph glyph-name="apple" unicode="&#xf8ff;" horiz-adv-x="1338" 
d="M189 -135v960h960v-960h-960zM1001 25h-117l-51 537l-102 -537h-122l-105 535l-50 -535h-113l69 650h169l95 -487l87 487h175zM199 816v-942h940v942h-940z" />
    <glyph glyph-name="Aring" unicode="&#xc5;" horiz-adv-x="488" 
d="M348 751c0 -34 -16 -59 -40 -75l161 -676h-89l-38 178h-199l-38 -178h-86l163 678c-22 16 -36 41 -36 73c0 58 46 92 100 92s102 -32 102 -92zM326 249l-83 386l-84 -386h167zM287 752c0 26 -16 46 -41 46s-40 -22 -40 -46c0 -22 15 -46 40 -46s41 21 41 46z" />
    <glyph glyph-name="lessequal" unicode="&#x2264;" 
d="M409 135l-360 155v105l360 169v-92l-295 -126l295 -117v-94zM409 0h-360v75h360v-75z" />
    <glyph glyph-name="greaterequal" unicode="&#x2265;" 
d="M409 290l-360 -155v94l295 117l-295 126v92l360 -169v-105zM409 0h-360v75h360v-75z" />
    <glyph glyph-name="Eth" unicode="&#xd0;" horiz-adv-x="533" 
d="M479 354c0 -276 -125 -354 -253 -354h-143v325h-64v75h64v300h143c116 0 253 -51 253 -346zM391 354c0 239 -85 278 -167 278h-53v-232h118v-75h-118v-258h55c82 0 165 68 165 287z" />
    <glyph glyph-name="degree" unicode="&#xb0;" horiz-adv-x="351" 
d="M252 546c0 54 -23 97 -77 97s-77 -43 -77 -97s25 -100 77 -100s77 46 77 100zM327 545c0 -87 -60 -163 -152 -163c-95 0 -151 77 -151 163s56 160 151 160s152 -73 152 -160z" />
    <glyph glyph-name="Zcaron" unicode="&#x17d;" horiz-adv-x="444" 
d="M208 751l-104 59l32 40l105 -43l105 43l32 -40l-104 -59h-66zM400 627l-272 -558h262v-69h-351v73l273 558h-250v69h338v-73z" />
    <glyph glyph-name="Scaron" unicode="&#x160;" horiz-adv-x="422" 
d="M188 751l-104 59l32 40l105 -43l105 43l32 -40l-104 -59h-66zM387 191c0 -133 -90 -201 -209 -201c-60 0 -109 18 -138 32l29 64c27 -13 60 -26 106 -26c70 0 125 49 125 126c0 81 -31 109 -117 154c-81 43 -136 95 -136 189c0 122 84 181 198 181c56 0 111 -22 132 -35
l-25 -59c-31 15 -69 26 -110 26c-63 0 -106 -39 -106 -104c0 -67 37 -99 98 -130c91 -47 153 -101 153 -217z" />
    <glyph glyph-name="lslash" unicode="&#x142;" horiz-adv-x="268" 
d="M223 67l12 -61c-14 -4 -31 -9 -60 -9c-46 0 -91 24 -91 115v222l-41 -26l-29 56l70 45v291h85v-235l43 28l29 -56l-72 -47v-279c0 -35 7 -47 33 -47c8 0 13 1 21 3z" />
    <glyph glyph-name="Lslash" unicode="&#x141;" horiz-adv-x="398" 
d="M389 0h-310v328l-50 -24l-27 61l77 37v298h87v-255l136 66l27 -61l-163 -79v-299h223v-72z" />
    <glyph glyph-name="Yacute" unicode="&#xdd;" horiz-adv-x="479" 
d="M182 742l-22 41l157 67l40 -66zM465 700l-182 -375v-325h-90v325l-179 375h95l134 -298l134 298h88z" />
    <glyph glyph-name="Ydieresis" unicode="&#x178;" horiz-adv-x="479" 
d="M376 760h-81l-3 75h87zM193 760h-81l-3 75h87zM465 700l-182 -375v-325h-90v325l-179 375h95l134 -298l134 298h88z" />
    <glyph glyph-name="ydieresis" unicode="&#xff;" horiz-adv-x="451" 
d="M422 500l-145 -544c-22 -83 -43 -131 -124 -131c-19 0 -45 4 -61 9l17 63c9 -2 23 -4 34 -4c32 0 41 13 50 46l16 61h-30l-150 500h90l115 -427l103 427h85zM358 598h-81l-3 77h87zM175 598h-81l-3 77h87z" />
    <glyph glyph-name="yacute" unicode="&#xfd;" horiz-adv-x="451" 
d="M422 500l-145 -544c-22 -83 -43 -131 -124 -131c-19 0 -45 4 -61 9l17 63c9 -2 23 -4 34 -4c32 0 41 13 50 46l16 61h-30l-150 500h90l115 -427l103 427h85zM175 576l-26 41l157 83l40 -66z" />
    <glyph glyph-name="eth" unicode="&#xf0;" horiz-adv-x="462" 
d="M49 225c0 135 39 239 154 239c48 0 89 -28 113 -52c-4 125 -24 186 -58 214l-49 -84l-61 27l45 78h-2c-36 0 -65 -8 -91 -18l-22 57c21 8 62 24 109 24c14 0 28 -1 41 -3l33 56l61 -27l-30 -51c64 -37 111 -124 111 -318c0 -292 -69 -377 -185 -377
c-89 0 -169 57 -169 235zM222 54c49 0 93 53 95 294c-14 15 -53 49 -102 49c-57 0 -79 -64 -79 -176c0 -109 20 -167 86 -167z" />
    <glyph glyph-name="parenleft" unicode="(" horiz-adv-x="298" 
d="M54 350c0 189 46 324 137 460h73c-83 -141 -125 -292 -125 -460s42 -319 125 -460h-73c-91 136 -137 271 -137 460z" />
    <glyph glyph-name="currency" unicode="&#xa4;" horiz-adv-x="646" 
d="M540 37l-69 68c-43 -34 -97 -50 -148 -50s-105 16 -149 50l-68 -68l-56 56l71 71c-23 38 -37 86 -37 146c0 59 14 107 37 145l-71 72l56 56l68 -68c44 34 98 50 149 50s105 -17 148 -51l69 69l56 -56l-72 -73c22 -37 36 -85 36 -144s-14 -107 -36 -145l72 -72zM477 310
c0 130 -80 186 -154 186s-156 -56 -156 -186s83 -186 156 -186s154 56 154 186z" />
    <glyph glyph-name="uni00AD" unicode="&#xad;" horiz-adv-x="495" 
d="M410 275h-325v75h325v-75z" />
    <glyph glyph-name="uni02C9" unicode="&#x2c9;" horiz-adv-x="315" 
d="M285 609h-255v66h255v-66z" />
    <glyph glyph-name="uni03BC" unicode="&#x3bc;" horiz-adv-x="500" 
d="M160 -170h-85v670h85v-327c0 -73 19 -116 78 -116c68 0 97 54 97 133v310h85v-500h-70l-7 59c-25 -42 -63 -67 -112 -67c-31 0 -55 7 -71 22v-184z" />
    <glyph glyph-name="Omega" unicode="&#x2126;" horiz-adv-x="548" 
d="M233 0h-163v72h65c-53 57 -70 159 -70 286c0 235 62 351 209 351s209 -116 209 -351c0 -128 -17 -229 -70 -286h67v-72h-163v72c57 23 77 126 77 281c0 220 -41 294 -120 294s-120 -74 -120 -294c0 -155 20 -259 79 -281v-72z" />
    <glyph glyph-name="uni2215" unicode="&#x2215;" horiz-adv-x="230" 
d="M158 810l-312 -910h-78l312 910h78z" />
    <glyph glyph-name="uni2219" unicode="&#x2219;" horiz-adv-x="230" 
d="M165 260h-100v100h100v-100z" />
    <glyph glyph-name="uni2224" unicode="&#x2224;" horiz-adv-x="230" 
d="M165 260h-100v100h100v-100z" />
    <glyph glyph-name="uni2227" unicode="&#x2227;" horiz-adv-x="230" 
d="M165 260h-100v100h100v-100z" />
    <glyph glyph-name="uni22C5" unicode="&#x22c5;" horiz-adv-x="230" 
d="M165 260h-100v100h100v-100z" />
    <glyph glyph-name="uni25AF" unicode="&#x25af;" horiz-adv-x="502" 
d="M65 0v700h372v-700h-372zM130 52h242v596h-242v-596z" />
    <glyph glyph-name="Delta" unicode="&#x2206;" 
d="M459 0h-460l178 700h111zM356 68l-124 567l-130 -567h254z" />
    <glyph glyph-name="lozenge" unicode="&#x25ca;" 
d="M424 350l-140 -350h-112l-138 350l140 350h110zM337 350l-108 286l-108 -286l108 -286z" />
    <glyph glyph-name="infinity" unicode="&#x221e;" horiz-adv-x="718" 
d="M364 225c-23 -48 -87 -79 -150 -79c-103 0 -175 62 -175 165s78 163 181 163c46 0 100 -17 135 -79c23 48 87 79 150 79c103 0 175 -62 175 -165s-78 -163 -181 -163c-46 0 -100 17 -135 79zM501 219c48 0 96 23 96 90c0 61 -47 92 -96 92c-54 0 -105 -23 -105 -110
c16 -39 58 -72 105 -72zM218 401c-48 0 -96 -23 -96 -90c0 -61 47 -92 96 -92c54 0 105 23 105 110c-16 39 -58 72 -105 72z" />
    <glyph glyph-name="summation" unicode="&#x2211;" 
d="M421 -170h-385v76l168 361l-155 356v77h361v-75h-270l159 -358l-174 -363h296v-74z" />
    <glyph glyph-name="pi" unicode="&#x3c0;" horiz-adv-x="542" 
d="M503 427h-90v-310c0 -35 5 -48 30 -48c7 0 14 1 19 2l12 -66c-14 -3 -33 -7 -61 -7c-39 0 -85 23 -85 114v315h-125v-427h-85v427h-79v73h464v-73z" />
    <glyph glyph-name="product" unicode="&#x220f;" horiz-adv-x="552" 
d="M513 625h-90v-508c0 -35 6 -48 31 -48c8 0 14 1 19 2l12 -66c-14 -3 -36 -7 -62 -7c-39 0 -87 23 -87 114v513h-131v-625h-87v625h-79v75h474v-75z" />
    <glyph glyph-name="percent" unicode="%" horiz-adv-x="844" 
d="M284 516c0 107 -26 139 -68 139s-68 -31 -68 -139s28 -138 68 -138s68 31 68 138zM353 520c0 -125 -53 -195 -137 -195s-137 70 -137 195s53 187 137 187s137 -62 137 -187zM582 700l-245 -700h-74l245 700h74zM696 181c0 107 -26 139 -68 139s-68 -31 -68 -139
s28 -138 68 -138s68 31 68 138zM765 185c0 -125 -53 -195 -137 -195s-137 70 -137 195s53 187 137 187s137 -62 137 -187z" />
    <glyph glyph-name="perthousand" unicode="&#x2030;" horiz-adv-x="1166" 
d="M284 516c0 107 -26 139 -68 139s-68 -31 -68 -139s28 -138 68 -138s68 31 68 138zM353 520c0 -125 -53 -195 -137 -195s-137 70 -137 195s53 187 137 187s137 -62 137 -187zM582 700l-245 -700h-74l245 700h74zM696 181c0 107 -26 139 -68 139s-68 -31 -68 -139
s28 -138 68 -138s68 31 68 138zM765 185c0 -125 -53 -195 -137 -195s-137 70 -137 195s53 187 137 187s137 -62 137 -187zM1018 181c0 107 -26 139 -68 139s-68 -31 -68 -139s28 -138 68 -138s68 31 68 138zM1087 185c0 -125 -53 -195 -137 -195s-137 70 -137 195
s53 187 137 187s137 -62 137 -187z" />
    <glyph glyph-name="ordfeminine" unicode="&#xaa;" horiz-adv-x="383" 
d="M345 367l-8 -49c-35 0 -66 15 -77 52c-16 -29 -45 -53 -99 -53s-107 30 -107 107c0 88 68 121 159 128l24 2v28c0 52 -15 65 -54 65c-30 0 -61 -9 -88 -20l-15 51c25 12 71 27 111 27c92 0 120 -44 120 -131v-169c0 -21 10 -38 34 -38zM320 0h-251v75h251v-75zM181 372
c42 0 56 29 56 59v71l-35 -3c-41 -3 -72 -14 -72 -70c0 -40 24 -57 51 -57z" />
    <glyph glyph-name="ordmasculine" unicode="&#xba;" horiz-adv-x="404" 
d="M338 0h-276v75h276v-75zM351 512c0 -141 -64 -195 -149 -195s-149 57 -149 195c0 139 64 193 149 193s149 -54 149 -193zM275 512c0 106 -25 140 -73 140s-73 -34 -73 -140c0 -98 25 -142 73 -142s73 44 73 142z" />
    <glyph glyph-name="caron" unicode="&#x2c7;" horiz-adv-x="322" 
d="M298 661l-104 -75h-66l-104 75l32 39l105 -53l105 53z" />
    <glyph glyph-name="section" unicode="&#xa7;" 
d="M68 360c0 47 28 88 73 111c-39 26 -59 57 -59 106c0 87 73 134 168 134c52 0 90 -14 120 -26l-23 -62c-27 10 -57 22 -102 22c-59 0 -77 -36 -77 -69c0 -39 40 -59 82 -76c82 -33 139 -66 139 -159c0 -47 -28 -88 -73 -111c38 -27 59 -58 59 -106
c0 -87 -73 -134 -168 -134c-52 0 -90 14 -120 26l23 62c27 -10 57 -22 102 -22c59 0 77 36 77 69c0 39 -40 59 -82 76c-82 33 -139 66 -139 159zM231 425c-8 3 -16 6 -23 10c-40 -10 -59 -41 -59 -70c0 -55 53 -81 100 -99c40 9 59 41 59 70c0 46 -37 72 -77 89z" />
    <glyph glyph-name="Euro" unicode="&#x20ac;" 
d="M348 227h-152c16 -134 61 -168 123 -168c38 0 66 9 97 20v-67c-32 -13 -62 -22 -98 -22c-118 0 -186 70 -207 237h-97l14 70h77c-1 17 -1 35 -1 54c0 18 0 35 1 52h-91l14 70h82c22 183 101 237 223 237c39 0 77 -11 106 -25l-13 -65c-34 13 -60 21 -101 21
c-68 0 -114 -34 -129 -168h201l-14 -70h-192c-1 -16 -1 -32 -1 -49c0 -21 0 -39 1 -57h171z" />
    <glyph glyph-name="dollar" unicode="$" 
d="M263 -110h-80v101c-48 4 -88 19 -113 32l29 62c27 -13 68 -25 104 -25c70 0 111 49 111 126c0 72 -32 101 -96 140c-78 48 -158 99 -158 207c0 91 51 147 123 167v124h80v-114c51 -3 95 -23 115 -35l-25 -59c-31 15 -66 26 -107 26c-54 0 -97 -36 -97 -101
c0 -56 33 -93 87 -125c91 -53 165 -103 165 -225c0 -108 -59 -173 -138 -193v-108z" />
    <glyph glyph-name="sterling" unicode="&#xa3;" 
d="M31 418h61v43c0 175 75 249 204 249c40 0 90 -14 119 -28l-23 -62c-34 13 -60 21 -94 21c-93 0 -119 -58 -119 -177v-46h182v-72h-182v-274h222v-72h-370v72h61v274h-61v72z" />
    <glyph glyph-name="yen" unicode="&#xa5;" 
d="M409 285h-136v-80h136v-75h-136v-130h-90v130h-134v75h134v80h-134v75h105l-140 340h95l124 -334l124 334h88l-143 -340h107v-75z" />
    <glyph glyph-name="integral" unicode="&#x222b;" horiz-adv-x="335" 
d="M-16 -117l18 59c20 -6 36 -11 63 -11c42 0 60 27 60 62v695c0 86 54 137 129 137c51 0 75 -10 97 -18l-18 -59c-20 6 -36 11 -63 11c-42 0 -60 -27 -60 -62v-695c0 -86 -54 -137 -129 -137c-51 0 -75 10 -97 18z" />
    <glyph glyph-name="thorn" unicode="&#xfe;" horiz-adv-x="487" 
d="M159 -170h-85v870h85v-250c26 34 65 58 121 58c97 0 153 -77 153 -226c0 -219 -59 -290 -218 -290c-21 0 -40 2 -56 5v-167zM254 446c-56 0 -95 -54 -95 -106v-283c15 -3 34 -4 66 -4c95 0 121 81 121 219c0 127 -28 174 -92 174z" />
    <glyph glyph-name="questiondown" unicode="&#xbf;" horiz-adv-x="388" 
d="M39 -57c0 85 28 116 96 194c33 38 32 59 32 155h85c0 -114 -8 -151 -56 -202c-52 -56 -71 -82 -71 -141c0 -51 30 -87 94 -87c31 0 76 12 106 26l24 -59c-32 -15 -83 -36 -149 -36c-91 0 -161 57 -161 150zM153 500h110l-5 -100h-100z" />
    <glyph glyph-name="exclamdown" unicode="&#xa1;" horiz-adv-x="238" 
d="M70 292h89v-492h-89v492zM64 500h110l-5 -100h-100z" />
    <glyph glyph-name="trademark" unicode="&#x2122;" horiz-adv-x="703" 
d="M639 280h-67l-19 362l-68 -362h-78l-69 361l-18 -361h-66l20 364h-96v-364h-73v364h-81v56h363l60 -335l58 335h113z" />
    <glyph glyph-name="Thorn" unicode="&#xde;" horiz-adv-x="498" 
d="M79 0v700h87v-126h63c152 0 215 -83 215 -210c0 -153 -71 -226 -213 -226h-65v-138h-87zM355 357c0 100 -43 150 -114 150h-75v-301h75c56 0 114 42 114 151z" />
    <glyph glyph-name="registered" unicode="&#xae;" horiz-adv-x="602" 
d="M528 493c0 -173 -120 -242 -227 -242s-227 69 -227 242s120 242 227 242s227 -69 227 -242zM470 493c0 140 -79 193 -169 193s-169 -53 -169 -193s79 -193 169 -193s169 53 169 193zM382 553c0 -40 -18 -62 -42 -73l29 -54c8 -15 15 -17 28 -20l-6 -37
c-24 1 -49 7 -63 35l-32 67h-17v-100h-47v259h56c62 0 94 -29 94 -77zM335 551c0 31 -17 44 -43 44h-13v-88h13c21 0 43 5 43 44z" />
    <glyph glyph-name="copyright" unicode="&#xa9;" horiz-adv-x="831" 
d="M757 360c0 -263 -168 -375 -342 -375s-342 112 -342 375s168 375 342 375s342 -112 342 -375zM682 360c0 216 -117 315 -267 315s-267 -99 -267 -315s117 -315 267 -315s267 99 267 315zM497 215l12 -54c-19 -8 -47 -17 -75 -17c-91 0 -144 62 -144 217
c0 169 57 215 152 215c24 0 51 -8 68 -17l-14 -51c-20 8 -38 12 -58 12c-47 0 -74 -17 -74 -158c0 -144 28 -159 70 -159c23 0 44 6 63 12z" />
    <glyph glyph-name="radical" unicode="&#x221a;" horiz-adv-x="560" 
d="M616 810v-60h-99l-203 -750h-119l-121 347l76 20l104 -314l201 757h161z" />
    <glyph glyph-name="ampersand" unicode="&#x26;" horiz-adv-x="613" 
d="M472 375l68 -27l-80 -191l49 -55c21 -23 47 -36 80 -48l-21 -59c-47 2 -84 18 -116 56l-29 34c-31 -45 -85 -95 -181 -95c-105 0 -188 75 -188 192c0 89 43 139 119 192c-58 68 -88 109 -88 180c0 81 58 156 168 156c109 0 159 -79 159 -159c0 -64 -41 -125 -133 -188
l127 -145zM256 58c59 0 94 43 117 85l-155 180c-55 -38 -82 -68 -82 -134c0 -73 45 -131 120 -131zM165 554c0 -44 13 -74 69 -140c86 58 102 91 102 141c0 54 -30 97 -83 97c-68 0 -88 -52 -88 -98z" />
    <glyph glyph-name="AE" unicode="&#xc6;" horiz-adv-x="723" 
d="M669 0h-289l-17 177h-197l-60 -177h-87l251 700h379v-68h-254l24 -236h219v-69h-211l26 -259h216v-68zM320 632l-134 -386h171z" />
    <glyph glyph-name="OE" unicode="&#x152;" horiz-adv-x="779" 
d="M725 0h-386c-20 -6 -42 -10 -66 -10c-148 0 -219 126 -219 363c0 235 66 357 219 357c25 0 48 -3 69 -10h383v-68h-293c36 -53 55 -132 59 -236h209v-69h-208c-3 -115 -24 -202 -64 -259h297v-68zM403 353c0 220 -54 293 -130 293s-130 -73 -130 -293
c0 -215 54 -299 130 -299s130 84 130 299z" />
    <glyph glyph-name="oe" unicode="&#x153;" horiz-adv-x="757" 
d="M705 227h-265c2 -144 67 -170 110 -170c35 0 61 4 108 20l20 -56c-35 -16 -85 -29 -128 -29c-53 0 -113 14 -150 81c-34 -57 -87 -81 -148 -81c-113 0 -198 75 -198 259c0 186 85 257 198 257c61 0 114 -24 148 -79c30 54 79 79 142 79c109 0 163 -80 163 -229v-52z
M363 251c0 142 -43 196 -111 196s-111 -54 -111 -196c0 -130 43 -198 111 -198s111 68 111 198zM539 449c-62 0 -91 -50 -98 -159h184c0 108 -27 159 -86 159z" />
    <glyph glyph-name="ae" unicode="&#xe6;" horiz-adv-x="701" 
d="M649 239h-265v-5c0 -150 67 -177 110 -177c35 0 61 4 108 20l20 -56c-35 -16 -85 -29 -128 -29c-51 0 -112 14 -150 83c-25 -44 -68 -83 -158 -83c-64 0 -142 37 -142 142c0 107 83 154 205 161l52 3v47c0 70 -21 97 -85 97c-41 0 -82 -13 -118 -27l-20 60
c34 15 95 34 148 34c71 0 111 -22 131 -62c31 42 75 61 129 61c109 0 163 -76 163 -219v-50zM213 56c69 0 88 49 88 89v94l-67 -5c-55 -4 -103 -23 -103 -94c0 -59 31 -84 82 -84zM483 449c-61 0 -89 -47 -97 -149h183c0 105 -27 149 -86 149z" />
    <glyph glyph-name="onesuperior" unicode="&#xb9;" horiz-adv-x="338" 
d="M291 300h-219v61h79v266l-68 -37l-36 55l104 55h75v-339h65v-61z" />
    <glyph glyph-name="twosuperior" unicode="&#xb2;" horiz-adv-x="338" 
d="M284 300h-231v64l65 73c44 49 89 99 89 151c0 38 -18 60 -60 60c-23 0 -52 -8 -70 -17l-23 53c15 7 52 24 102 24c77 0 129 -43 129 -121c0 -73 -40 -117 -87 -169l-49 -54h135v-64z" />
    <glyph glyph-name="threesuperior" unicode="&#xb3;" horiz-adv-x="338" 
d="M283 415c0 -83 -60 -123 -137 -123c-40 0 -74 9 -92 17l21 56c18 -6 34 -11 60 -11c39 0 69 18 69 59c0 49 -25 66 -67 66h-21v59h14c53 0 65 29 65 57c0 31 -19 53 -53 53c-28 0 -47 -6 -65 -12l-19 54c10 4 48 18 91 18c76 0 125 -36 125 -113c0 -39 -25 -72 -64 -83
c39 -7 73 -35 73 -97z" />
    <glyph glyph-name="onequarter" unicode="&#xbc;" horiz-adv-x="700" 
d="M656 94h-45v-94h-73v94h-128v60l68 252l69 -6l-62 -248h53l9 102h64v-102h45v-58zM278 300h-209v61h79v266l-68 -37l-36 55l104 55h75v-339h55v-61zM565 810l-312 -910h-78l312 910h78z" />
    <glyph glyph-name="onehalf" unicode="&#xbd;" horiz-adv-x="738" 
d="M278 300h-209v61h79v266l-68 -37l-36 55l104 55h75v-339h55v-61zM693 0h-231v64l65 73c44 49 89 99 89 151c0 38 -18 60 -60 60c-23 0 -52 -8 -70 -17l-23 53c15 7 52 24 102 24c77 0 129 -43 129 -121c0 -73 -40 -117 -87 -169l-49 -54h135v-64zM565 810l-312 -910h-78
l312 910h78z" />
    <glyph glyph-name="threequarters" unicode="&#xbe;" horiz-adv-x="687" 
d="M643 94h-45v-94h-73v94h-128v60l68 252l69 -6l-62 -248h53l9 102h64v-102h45v-58zM273 415c0 -83 -60 -123 -137 -123c-40 0 -74 9 -92 17l21 56c18 -6 34 -11 60 -11c39 0 69 18 69 59c0 49 -25 66 -67 66h-21v59h14c53 0 65 29 65 57c0 31 -19 53 -53 53
c-28 0 -47 -6 -65 -12l-19 54c10 4 48 18 91 18c76 0 125 -36 125 -113c0 -39 -25 -72 -64 -83c39 -7 73 -35 73 -97zM552 810l-312 -910h-78l312 910h78z" />
    <glyph glyph-name="exclam" unicode="!" horiz-adv-x="238" 
d="M168 208h-89v492h89v-492zM174 0h-110l5 100h100z" />
    <glyph glyph-name="numbersign" unicode="#" 
d="M260 248l18 214h-80l-18 -214h80zM404 180h-70l-16 -180h-80l16 180h-80l-16 -180h-80l16 180h-70l6 68h70l18 214h-70l6 68h70l15 170h80l-15 -170h80l15 170h80l-15 -170h70l-6 -68h-70l-18 -214h70z" />
    </font>
</defs>
</svg>
