<?xml version="1.0" standalone="no"?>
<!DOCTYPE svg PUBLIC "-//W3C//DTD SVG 1.1//EN" "http://www.w3.org/Graphics/SVG/1.1/DTD/svg11.dtd" >
<svg xmlns="http://www.w3.org/2000/svg" xmlns:xlink="http://www.w3.org/1999/xlink" version="1.1">
<metadata>
Created by FontForge 20161116 at Mon Feb 12 15:10:04 2007
 By Jimmy Wärting
Copyright (c) This Font is designed by Ralph Oliver du Carrois, 2005. All rights reserved.
</metadata>
<defs>
<font id="UrbsDisplay-Bold" horiz-adv-x="458" >
  <font-face 
    font-family="Urbs Display-Bold"
    font-weight="400"
    font-stretch="normal"
    units-per-em="1000"
    panose-1="2 0 5 6 4 0 0 2 0 4"
    ascent="800"
    descent="-200"
    x-height="500"
    cap-height="700"
    bbox="-101 -207 1149 873"
    underline-thickness="75"
    underline-position="-135"
    stemh="71"
    stemv="86"
    unicode-range="U+0020-FB02"
  />
<missing-glyph horiz-adv-x="502" 
d="M65 0v700h372v-700h-372zM160 82h182v536h-182v-536z" />
    <glyph glyph-name="fi" unicode="fi" horiz-adv-x="554" 
d="M501 0h-125v409h-176v-409h-125v409h-65v91h65v54c0 94 73 156 207 156c73 0 133 -23 164 -38l-25 -81c-20 10 -68 30 -126 30c-78 0 -95 -33 -95 -81v-40h301v-500z" />
    <glyph glyph-name="fl" unicode="fl" horiz-adv-x="590" 
d="M289 409h-90v-409h-125v409h-65v91h65v54c0 94 73 156 207 156c53 0 99 -12 132 -25l87 15v-567c0 -35 10 -48 40 -48c8 0 18 1 26 3l10 -84c-14 -4 -39 -9 -73 -9c-89 0 -128 48 -128 139v475c-23 6 -51 12 -81 12c-78 0 -95 -33 -95 -81v-40h90v-91z" />
    <glyph glyph-name=".notdef" horiz-adv-x="502" 
d="M65 0v700h372v-700h-372zM160 82h182v536h-182v-536z" />
    <glyph glyph-name="exclam" unicode="!" horiz-adv-x="268" 
d="M194 228h-120l-10 472h140zM204 0h-140l5 130h130z" />
    <glyph glyph-name="numbersign" unicode="#" horiz-adv-x="521" 
d="M293 268l15 169h-80l-15 -169h80zM465 175h-70l-17 -175h-110l17 175h-80l-17 -175h-110l17 175h-70l8 93h70l15 169h-70l8 93h70l15 170h110l-15 -170h80l15 170h110l-15 -170h70l-8 -93h-70l-15 -169h70z" />
    <glyph glyph-name="parenleft" unicode="(" horiz-adv-x="298" 
d="M34 350c0 189 46 324 137 460h103c-83 -141 -122 -292 -122 -460s39 -319 122 -460h-103c-91 136 -137 271 -137 460z" />
    <glyph glyph-name="parenright" unicode=")" horiz-adv-x="298" 
d="M264 350c0 -189 -46 -324 -137 -460h-103c83 141 122 292 122 460s-39 319 -122 460h103c91 -136 137 -271 137 -460z" />
    <glyph glyph-name="asterisk" unicode="*" horiz-adv-x="468" 
d="M86 531l-49 6l39 115l40 -24c50 -27 96 -70 113 -90c-13 21 -40 80 -51 134l-10 48h122l-10 -48c-11 -55 -38 -112 -51 -134c16 19 64 63 112 90l43 24l37 -116l-48 -5c-16 -2 -33 -3 -49 -3c-39 0 -75 5 -93 9c24 -10 78 -42 118 -78l36 -33l-99 -71l-19 44
c-24 49 -36 110 -38 137c-2 -26 -16 -87 -38 -136l-20 -45l-98 73l36 31c41 39 96 69 120 79c-16 -5 -55 -9 -95 -9c-16 0 -32 0 -48 2z" />
    <glyph glyph-name="plus" unicode="+" 
d="M414 262h-129v-139h-110v139h-132v101h132v140h110v-140h129v-101z" />
    <glyph glyph-name="comma" unicode="," horiz-adv-x="268" 
d="M204 0l-89 -160h-86l35 160l5 130h130z" />
    <glyph glyph-name="hyphen" unicode="-" horiz-adv-x="345" 
d="M311 262h-277v101h277v-101z" />
    <glyph glyph-name="period" unicode="." horiz-adv-x="268" 
d="M204 0h-140l5 130h130z" />
    <glyph glyph-name="slash" unicode="/" 
d="M389 750l-163 -811h-109l163 811h109z" />
    <glyph glyph-name="zero" unicode="0" 
d="M309 357c0 220 -23 265 -80 265s-80 -45 -80 -265c0 -215 27 -280 80 -280s80 65 80 280zM434 357c0 -221 -56 -367 -205 -367c-145 0 -205 132 -205 367c0 239 62 353 205 353c145 0 205 -114 205 -353z" />
    <glyph glyph-name="one" unicode="1" 
d="M414 0h-326v93h107v495l-104 -64l-48 83l152 93h125v-607h94v-93z" />
    <glyph glyph-name="two" unicode="2" 
d="M396 0h-353v98l100 142c62 88 128 192 128 277c0 63 -25 100 -100 100c-36 0 -79 -15 -111 -27l-29 82c24 11 89 38 167 38c118 0 197 -60 197 -197c0 -97 -53 -196 -129 -302l-81 -113h211v-98z" />
    <glyph glyph-name="three" unicode="3" 
d="M389 189c0 -130 -99 -199 -214 -199c-60 0 -115 15 -142 29l29 85c27 -10 49 -19 95 -19c60 0 106 37 106 110c0 93 -43 125 -103 125h-32v86h22c77 0 100 70 100 110c0 79 -34 103 -84 103c-34 0 -73 -11 -100 -22l-27 83c35 15 82 30 135 30c118 0 201 -55 201 -183
c0 -69 -42 -134 -101 -159c61 -18 115 -68 115 -179z" />
    <glyph glyph-name="four" unicode="4" 
d="M437 156h-71v-156h-119v156h-204v95l105 454l115 -10l-95 -447h79l16 209h103v-209h71v-92z" />
    <glyph glyph-name="five" unicode="5" 
d="M384 609h-194v-177c133 -5 216 -79 216 -213c0 -158 -97 -229 -226 -229c-53 0 -105 14 -132 25l25 85c26 -8 58 -17 101 -17c69 0 106 54 106 134c0 98 -47 125 -141 125h-61v358h306v-91z" />
    <glyph glyph-name="six" unicode="6" 
d="M433 215c0 -161 -99 -225 -190 -225c-111 0 -204 59 -204 344c0 289 136 376 237 376c69 0 99 -14 131 -26l-29 -81c-28 12 -57 19 -86 19c-63 0 -116 -62 -127 -228c26 27 64 50 112 50c122 0 156 -91 156 -229zM245 351c-47 0 -71 -26 -81 -39c2 -205 30 -235 76 -235
c39 0 68 40 68 134c0 117 -27 140 -63 140z" />
    <glyph glyph-name="seven" unicode="7" 
d="M413 600l-191 -600h-130l194 602h-248v98h375v-100z" />
    <glyph glyph-name="eight" unicode="8" 
d="M312 190c0 62 -34 132 -107 132c-36 -20 -59 -52 -59 -132c0 -76 45 -112 83 -112s83 35 83 112zM296 523c0 74 -24 101 -67 101c-36 0 -67 -27 -67 -101c0 -60 28 -115 86 -115c37 16 48 58 48 115zM437 190c0 -126 -88 -200 -208 -200s-208 74 -208 200
c0 87 41 141 107 170c-58 34 -89 90 -89 163c0 115 79 187 190 187s190 -57 190 -187c0 -70 -29 -118 -88 -151c68 -26 106 -97 106 -182z" />
    <glyph glyph-name="nine" unicode="9" 
d="M29 485c0 161 100 225 191 225c111 0 203 -59 203 -344c0 -289 -114 -376 -230 -376c-69 0 -98 14 -130 26l29 81c28 -12 58 -19 87 -19c68 0 109 70 117 237c-26 -26 -63 -49 -111 -49c-122 0 -156 81 -156 219zM217 359c47 0 71 26 81 38c-2 197 -30 226 -75 226
c-39 0 -69 -40 -69 -134c0 -117 27 -130 63 -130z" />
    <glyph glyph-name="colon" unicode=":" horiz-adv-x="268" 
d="M204 0h-140l5 130h130zM64 500h140l-5 -130h-135v130z" />
    <glyph glyph-name="semicolon" unicode=";" horiz-adv-x="268" 
d="M204 0l-89 -160h-86l35 160l5 130h130zM64 500h140l-5 -130h-130z" />
    <glyph glyph-name="less" unicode="&#x3c;" 
d="M414 105l-370 165v125l370 169v-122l-271 -108l271 -105v-124z" />
    <glyph glyph-name="equal" unicode="=" 
d="M409 162h-360v101h360v-101zM409 362h-360v101h360v-101z" />
    <glyph glyph-name="greater" unicode="&#x3e;" 
d="M414 270l-370 -165v124l271 105l-271 108v122l370 -169v-125z" />
    <glyph glyph-name="question" unicode="?" horiz-adv-x="396" 
d="M367 547c0 -68 -24 -109 -89 -189c-31 -39 -37 -62 -37 -130h-119c0 95 7 131 53 184c50 58 63 94 63 131c0 51 -34 71 -74 71c-31 0 -74 -12 -104 -26l-31 80c32 15 88 39 154 39c91 0 184 -41 184 -160zM258 0h-150l10 130h130z" />
    <glyph glyph-name="at" unicode="@" horiz-adv-x="809" 
d="M447 311l14 141c-6 7 -16 14 -34 14c-27 0 -75 -26 -75 -177c0 -56 14 -67 40 -67c40 0 52 54 55 89zM760 387c0 -140 -55 -268 -171 -268c-57 0 -100 33 -111 93c-18 -39 -52 -68 -113 -68c-57 0 -122 39 -122 161c0 188 100 239 162 239c35 0 56 -7 81 -25l12 17h75
l-23 -246c-1 -15 -2 -28 -2 -39c0 -46 13 -58 36 -58c42 0 63 85 63 194c0 168 -85 239 -217 239c-99 0 -245 -63 -245 -291c0 -196 104 -259 234 -259c45 0 86 7 115 16l22 -77c-35 -12 -91 -25 -155 -25c-191 0 -327 119 -327 345c0 275 192 375 353 375
c220 0 333 -143 333 -323z" />
    <glyph glyph-name="A" unicode="A" horiz-adv-x="527" 
d="M378 0l-31 159h-171l-31 -159h-131l169 700h164l166 -700h-135zM263 599l-67 -340h132z" />
    <glyph glyph-name="B" unicode="B" horiz-adv-x="516" 
d="M353 197c0 89 -39 123 -112 123h-45v-230h56c44 0 101 19 101 107zM332 507c0 68 -27 104 -93 104h-43v-205h38c40 0 98 14 98 101zM482 200c0 -158 -109 -200 -235 -200h-178v700h168c132 0 222 -57 222 -186c0 -88 -65 -133 -105 -147c48 -12 128 -61 128 -167z" />
    <glyph glyph-name="C" unicode="C" horiz-adv-x="450" 
d="M396 111l27 -87c-30 -16 -78 -34 -139 -34c-143 0 -240 104 -240 361c0 282 109 359 255 359c46 0 95 -17 127 -35l-32 -87c-34 17 -63 27 -97 27c-67 0 -124 -35 -124 -261c0 -237 58 -269 119 -269c42 0 74 12 104 26z" />
    <glyph glyph-name="D" unicode="D" horiz-adv-x="549" 
d="M377 354c0 239 -80 253 -152 253h-28v-514h30c70 0 150 45 150 261zM505 354c0 -281 -132 -354 -278 -354h-158v700h158c137 0 278 -51 278 -346z" />
    <glyph glyph-name="E" unicode="E" horiz-adv-x="461" 
d="M417 0h-348v700h348v-93h-221v-199h196v-93h-196v-222h221v-93z" />
    <glyph glyph-name="F" unicode="F" horiz-adv-x="441" 
d="M417 606h-221v-214h196v-93h-196v-299h-127v700h348v-94z" />
    <glyph glyph-name="G" unicode="G" horiz-adv-x="503" 
d="M454 384v-366c-33 -14 -102 -28 -160 -28c-170 0 -250 104 -250 361c0 282 115 359 261 359c46 0 100 -18 136 -40l-34 -85c-38 21 -70 32 -104 32c-67 0 -130 -37 -130 -263c0 -237 53 -269 119 -269c14 0 27 1 39 4v200h-69v95h192z" />
    <glyph glyph-name="H" unicode="H" horiz-adv-x="570" 
d="M501 0h-127v310h-178v-310h-127v700h127v-295h178v295h127v-700z" />
    <glyph glyph-name="I" unicode="I" horiz-adv-x="265" 
d="M69 0v700h127v-700h-127z" />
    <glyph glyph-name="J" unicode="J" horiz-adv-x="408" 
d="M217 700h127v-449c0 -216 -85 -261 -211 -261c-39 0 -87 9 -114 18l25 89c24 -7 48 -12 74 -12c70 0 99 30 99 159v456z" />
    <glyph glyph-name="K" unicode="K" horiz-adv-x="518" 
d="M196 700v-279l169 279h131l-192 -316l152 -253c20 -33 33 -45 58 -56l-41 -83c-53 7 -93 18 -127 76l-150 262v-330h-127v700h127z" />
    <glyph glyph-name="L" unicode="L" horiz-adv-x="403" 
d="M394 0h-325v700h127v-603h198v-97z" />
    <glyph glyph-name="M" unicode="M" horiz-adv-x="708" 
d="M654 0h-117l-31 580l-89 -580h-129l-91 578l-30 -578h-113l37 700h186l80 -541l73 541h189z" />
    <glyph glyph-name="N" unicode="N" horiz-adv-x="573" 
d="M504 0h-181l-145 564v-564h-109v700h180l145 -563v563h110v-700z" />
    <glyph glyph-name="O" unicode="O" horiz-adv-x="566" 
d="M393 353c0 190 -34 268 -110 268s-110 -78 -110 -268s34 -274 110 -274s110 59 110 274zM522 353c0 -235 -77 -363 -239 -363s-239 126 -239 363c0 235 79 357 239 357s239 -122 239 -357z" />
    <glyph glyph-name="P" unicode="P" horiz-adv-x="498" 
d="M350 472c0 90 -35 136 -106 136h-48v-271h48c56 0 106 39 106 135zM479 479c0 -152 -96 -235 -245 -235h-38v-244h-127v700h163c165 0 247 -94 247 -221z" />
    <glyph glyph-name="Q" unicode="Q" horiz-adv-x="566" 
d="M522 353c0 -192 -51 -312 -158 -350l34 -12c14 -5 27 -7 40 -7s27 2 41 4l17 -89c-16 -7 -33 -10 -51 -10c-28 0 -58 7 -90 19l-97 36v47c-145 12 -214 137 -214 362c0 235 79 357 239 357s239 -122 239 -357zM393 353c0 190 -34 268 -110 268s-110 -78 -110 -268
s34 -274 110 -274s110 59 110 274z" />
    <glyph glyph-name="R" unicode="R" horiz-adv-x="521" 
d="M474 494c0 -97 -43 -159 -116 -193l95 -170c19 -34 34 -43 59 -54l-31 -85c-59 6 -104 16 -135 76l-108 206h-42v-274h-127v700h163c159 0 242 -88 242 -206zM346 487c0 81 -38 121 -102 121h-48v-241h48c49 0 102 34 102 120z" />
    <glyph glyph-name="S" unicode="S" horiz-adv-x="463" 
d="M424 196c0 -141 -108 -206 -235 -206c-66 0 -128 20 -160 40l39 85c27 -13 72 -30 118 -30c69 0 110 41 110 101c0 71 -54 94 -135 144c-85 53 -121 108 -121 196c0 111 88 184 215 184c77 0 131 -26 159 -42l-35 -83c-34 18 -65 32 -113 32c-50 0 -96 -25 -96 -79
c0 -47 24 -72 111 -121c91 -51 143 -104 143 -221z" />
    <glyph glyph-name="T" unicode="T" horiz-adv-x="433" 
d="M424 606h-144v-606h-127v606h-144v94h415v-94z" />
    <glyph glyph-name="U" unicode="U" horiz-adv-x="553" 
d="M489 700v-495c0 -149 -97 -215 -212 -215s-213 67 -213 215v495h127v-499c0 -70 26 -120 86 -120s85 50 85 120v499h127z" />
    <glyph glyph-name="V" unicode="V" horiz-adv-x="487" 
d="M478 700l-153 -700h-173l-143 700h129l105 -594l115 594h120z" />
    <glyph glyph-name="W" unicode="W" horiz-adv-x="673" 
d="M654 700l-81 -700h-171l-65 580l-68 -580h-171l-79 700h121l56 -570l73 570h138l74 -570l61 570h112z" />
    <glyph glyph-name="X" unicode="X" horiz-adv-x="534" 
d="M193 364l-159 336h138l99 -223l100 223h129l-161 -331l176 -369h-138l-113 263l-114 -263h-131z" />
    <glyph glyph-name="Y" unicode="Y" horiz-adv-x="500" 
d="M501 700l-188 -395v-305h-130v305l-184 395h142l112 -277l121 277h127z" />
    <glyph glyph-name="Z" unicode="Z" horiz-adv-x="474" 
d="M440 599l-270 -502h260v-97h-401v101l271 502h-248v97h388v-101z" />
    <glyph glyph-name="bracketleft" unicode="[" horiz-adv-x="313" 
d="M269 -120h-220v940h220v-89h-104v-762h104v-89z" />
    <glyph glyph-name="backslash" unicode="\" 
d="M280 -100l-171 850h109l171 -850h-109z" />
    <glyph glyph-name="bracketright" unicode="]" horiz-adv-x="313" 
d="M264 -120h-220v89h104v762h-104v89h220v-940z" />
    <glyph glyph-name="asciicircum" unicode="^" horiz-adv-x="495" 
d="M461 420h-123l-91 250l-97 -250h-116l142 340h144z" />
    <glyph glyph-name="underscore" unicode="_" horiz-adv-x="498" 
d="M501 -170h-504v101h504v-101z" />
    <glyph glyph-name="a" unicode="a" horiz-adv-x="490" 
d="M466 79l-26 -85c-63 3 -96 26 -110 71c-23 -42 -60 -75 -146 -75c-75 0 -150 41 -150 145c0 109 67 166 215 180l42 4v10c0 54 -12 90 -72 90c-46 0 -85 -12 -121 -26l-30 79c34 15 94 38 171 38c127 0 177 -75 177 -191v-184c0 -31 16 -51 50 -56zM222 74
c55 0 67 52 69 91v76l-47 -5c-53 -6 -83 -39 -83 -90c0 -52 29 -72 61 -72z" />
    <glyph glyph-name="b" unicode="b" horiz-adv-x="507" 
d="M463 282c0 -200 -64 -292 -228 -292c-72 0 -143 13 -171 19v691h125v-243c25 31 62 53 118 53c97 0 156 -71 156 -228zM264 425c-48 0 -75 -53 -75 -105v-244c13 -2 29 -2 46 -2c74 0 101 68 101 198c0 101 -18 153 -72 153z" />
    <glyph glyph-name="c" unicode="c" horiz-adv-x="394" 
d="M338 103l29 -81c-29 -16 -74 -32 -122 -32c-117 0 -201 59 -201 257c0 197 94 263 209 263c43 0 82 -15 114 -32l-29 -77c-30 14 -51 20 -82 20c-53 0 -85 -41 -85 -176c0 -133 35 -163 85 -163c33 0 59 9 82 21z" />
    <glyph glyph-name="d" unicode="d" horiz-adv-x="513" 
d="M44 218c0 200 69 292 231 292c17 0 33 -1 49 -3v193h125v-700h-90l-24 56c-24 -38 -64 -66 -132 -66c-97 0 -159 71 -159 228zM246 75c45 0 75 47 78 97v252c-15 1 -31 2 -49 2c-73 0 -104 -68 -104 -198c0 -101 21 -153 75 -153z" />
    <glyph glyph-name="e" unicode="e" horiz-adv-x="461" 
d="M427 217h-258c5 -114 56 -137 105 -137c41 0 74 10 110 28l28 -80c-33 -18 -89 -38 -147 -38c-91 0 -221 37 -221 260c0 182 81 260 204 260c130 0 179 -92 179 -241v-52zM246 431c-43 0 -68 -34 -75 -131h143c0 78 -18 131 -68 131z" />
    <glyph glyph-name="f" unicode="f" horiz-adv-x="301" 
d="M297 409h-96v-409h-125v409h-65v91h65v64c0 86 47 146 155 146c51 0 84 -10 106 -18l-25 -81c-21 7 -31 10 -58 10c-42 0 -53 -31 -53 -71v-50h96v-91z" />
    <glyph glyph-name="g" unicode="g" horiz-adv-x="513" 
d="M44 223c0 188 71 287 233 287c72 0 144 -13 172 -19v-466c0 -159 -89 -214 -215 -214c-62 0 -121 15 -155 28l27 84c43 -14 81 -20 116 -20c67 0 102 29 102 120v33c-25 -31 -63 -53 -121 -53c-97 0 -159 73 -159 220zM246 88c48 0 78 50 78 102v234c-15 1 -31 2 -49 2
c-73 0 -104 -72 -104 -193c0 -94 21 -145 75 -145z" />
    <glyph glyph-name="h" unicode="h" horiz-adv-x="527" 
d="M189 0h-125v700h125v-245c28 33 68 55 123 55c126 0 151 -85 151 -182v-328h-125v320c0 64 -6 104 -62 104c-46 0 -87 -38 -87 -124v-300z" />
    <glyph glyph-name="i" unicode="i" horiz-adv-x="253" 
d="M194 590h-135l-5 110h145zM189 0h-125v500h125v-500z" />
    <glyph glyph-name="j" unicode="j" horiz-adv-x="253" 
d="M189 500v-540c-1 -83 -44 -135 -144 -135c-42 0 -75 10 -101 20l27 82c19 -6 32 -9 49 -9c34 0 44 22 44 61v521h125zM194 590h-135l-5 110h145z" />
    <glyph glyph-name="k" unicode="k" horiz-adv-x="471" 
d="M189 700v-362l136 162h130l-166 -193l108 -175c22 -36 37 -42 65 -56l-48 -81c-44 2 -91 25 -119 73l-106 185v-253h-125v700h125z" />
    <glyph glyph-name="l" unicode="l" horiz-adv-x="279" 
d="M255 88l10 -84c-14 -4 -39 -9 -73 -9c-89 0 -128 48 -128 139v566h125v-567c0 -35 10 -48 40 -48c8 0 18 1 26 3z" />
    <glyph glyph-name="m" unicode="m" horiz-adv-x="773" 
d="M189 0h-125v500h95l17 -58c27 40 66 68 124 68c70 0 108 -27 128 -67c27 40 69 67 132 67c126 0 149 -85 149 -182v-328h-125v320c0 64 -4 104 -60 104c-35 0 -73 -33 -75 -115v-309h-125v320c0 64 -4 104 -60 104c-36 0 -75 -38 -75 -124v-300z" />
    <glyph glyph-name="n" unicode="n" horiz-adv-x="527" 
d="M189 0h-125v500h95l18 -61c29 42 72 71 135 71c126 0 151 -85 151 -182v-328h-125v320c0 64 -6 104 -62 104c-46 0 -87 -38 -87 -124v-300z" />
    <glyph glyph-name="o" unicode="o" horiz-adv-x="524" 
d="M480 248c0 -177 -95 -258 -218 -258s-218 82 -218 258c0 179 95 262 218 262s218 -86 218 -262zM353 248c0 125 -31 176 -91 176s-91 -49 -91 -176c0 -117 31 -172 91 -172s91 61 91 172z" />
    <glyph glyph-name="p" unicode="p" horiz-adv-x="507" 
d="M189 -170h-125v670h90l23 -55c27 37 68 65 130 65c97 0 156 -71 156 -228c0 -200 -64 -292 -228 -292c-16 0 -32 1 -46 3v-163zM264 425c-46 0 -73 -48 -75 -97v-252c13 -2 29 -2 46 -2c74 0 101 68 101 198c0 101 -18 153 -72 153z" />
    <glyph glyph-name="q" unicode="q" horiz-adv-x="513" 
d="M44 218c0 200 69 292 231 292c72 0 146 -13 174 -19v-661h-125v210c-25 -29 -63 -50 -121 -50c-97 0 -159 71 -159 228zM246 75c48 0 78 53 78 105v244c-15 1 -31 2 -49 2c-73 0 -104 -68 -104 -198c0 -101 21 -153 75 -153z" />
    <glyph glyph-name="r" unicode="r" horiz-adv-x="356" 
d="M189 0h-125v500h95l23 -80c25 52 62 90 112 90c25 0 41 -4 53 -8l-14 -108c-13 4 -25 7 -42 7c-71 0 -102 -78 -102 -150v-251z" />
    <glyph glyph-name="s" unicode="s" horiz-adv-x="418" 
d="M372 141c0 -109 -92 -151 -193 -151c-68 0 -126 20 -147 30l31 84c30 -12 64 -23 104 -23c47 0 76 19 76 56c0 38 -31 51 -84 74c-58 25 -116 66 -116 157c0 92 73 142 177 142c71 0 111 -15 146 -32l-31 -84c-29 15 -60 27 -102 27s-64 -16 -64 -46c0 -29 22 -46 71 -66
c89 -37 132 -75 132 -168z" />
    <glyph glyph-name="t" unicode="t" horiz-adv-x="332" 
d="M297 409h-96v-259c0 -40 5 -70 47 -70c19 0 41 3 58 9l20 -81c-22 -8 -58 -18 -101 -18c-108 0 -149 60 -149 146v273h-65v91h67l6 110l117 14v-124h96v-91z" />
    <glyph glyph-name="u" unicode="u" horiz-adv-x="513" 
d="M64 500h125v-320c0 -64 4 -104 55 -104c46 0 80 38 80 124v300h125v-500h-95l-17 57c-27 -40 -68 -67 -129 -67c-123 0 -144 85 -144 182v328z" />
    <glyph glyph-name="v" unicode="v" horiz-adv-x="470" 
d="M451 500l-134 -500h-163l-135 500h128l91 -395l88 395h125z" />
    <glyph glyph-name="w" unicode="w" horiz-adv-x="698" 
d="M674 500l-101 -500h-167l-55 319l-60 -319h-165l-102 500h126l63 -403l80 403h123l74 -403l63 403h121z" />
    <glyph glyph-name="x" unicode="x" horiz-adv-x="469" 
d="M238 360l68 140h133l-138 -234l154 -266h-151l-76 155l-79 -155h-135l149 258l-137 242h147z" />
    <glyph glyph-name="y" unicode="y" horiz-adv-x="474" 
d="M455 500l-146 -544c-26 -99 -74 -134 -157 -134c-31 0 -57 5 -73 10l22 86c10 -3 23 -5 34 -5c34 0 44 16 53 49l11 38h-39l-141 500h138l86 -383l87 383h125z" />
    <glyph glyph-name="z" unicode="z" horiz-adv-x="426" 
d="M392 409l-218 -318h208v-91h-353v91l221 318h-201v91h343v-91z" />
    <glyph glyph-name="braceleft" unicode="{" horiz-adv-x="313" 
d="M38 288v122c38 5 60 20 60 79l-5 209c0 89 45 127 128 127c29 0 48 -4 58 -6l-20 -83c-6 1 -13 2 -22 2c-21 0 -35 -12 -34 -42l5 -227c0 -78 -53 -113 -100 -120c47 -7 100 -42 100 -120l-5 -227c-1 -30 13 -42 34 -42c9 0 16 1 22 2l20 -83c-10 -2 -29 -6 -58 -6
c-83 0 -128 38 -128 127l5 209c0 59 -22 74 -60 79z" />
    <glyph glyph-name="bar" unicode="|" horiz-adv-x="388" 
d="M134 -100v850h120v-850h-120z" />
    <glyph glyph-name="braceright" unicode="}" horiz-adv-x="313" 
d="M275 410v-122c-38 -5 -60 -20 -60 -79l5 -209c0 -89 -45 -127 -128 -127c-29 0 -48 4 -58 6l20 83c6 -1 13 -2 22 -2c21 0 35 12 34 42l-5 227c0 78 53 113 100 120c-47 7 -100 42 -100 120l5 227c1 30 -13 42 -34 42c-9 0 -16 -1 -22 -2l-20 83c10 2 29 6 58 6
c83 0 128 -38 128 -127l-5 -209c0 -59 22 -74 60 -79z" />
    <glyph glyph-name="asciitilde" unicode="~" 
d="M292 248c-56 0 -85 39 -130 39c-35 0 -65 -17 -93 -36l-37 82c41 39 89 56 134 56c56 0 85 -39 130 -39c35 0 66 17 94 36l36 -82c-41 -39 -89 -56 -134 -56z" />
    <glyph glyph-name="cent" unicode="&#xa2;" 
d="M313 -110h-100v105c-86 19 -142 88 -142 251c0 157 59 230 142 254v100h100v-94c30 -5 57 -17 81 -29l-29 -77c-30 14 -51 20 -82 20c-53 0 -85 -41 -85 -176c0 -133 35 -163 85 -163c33 0 59 9 82 21l29 -81c-21 -12 -49 -23 -81 -28v-103z" />
    <glyph glyph-name="quotesingle" unicode="'" horiz-adv-x="182" 
d="M153 610l-22 -160h-80l-22 160l3 90h118z" />
    <glyph glyph-name="guilsinglleft" unicode="&#x2039;" horiz-adv-x="293" 
d="M239 92h-81l-104 207l104 207h81l-58 -207z" />
    <glyph glyph-name="bullet" unicode="&#x2022;" horiz-adv-x="298" 
d="M244 215h-190v195h190v-195z" />
    <glyph glyph-name="circumflex" unicode="&#x2c6;" horiz-adv-x="342" 
d="M209 700l109 -72l-32 -56l-115 50l-115 -50l-32 56l109 72h76z" />
    <glyph glyph-name="breve" unicode="&#x2d8;" horiz-adv-x="354" 
d="M330 700c-9 -55 -58 -113 -153 -113s-144 58 -153 113h97c10 -30 25 -45 56 -45s46 15 56 45h97z" />
    <glyph glyph-name="dotaccent" unicode="&#x2d9;" horiz-adv-x="193" 
d="M164 590h-135l-5 110h145z" />
    <glyph glyph-name="ring" unicode="&#x2da;" horiz-adv-x="270" 
d="M165 634c0 26 -12 41 -31 41s-30 -17 -30 -41c0 -22 11 -41 30 -41s31 16 31 41zM246 633c0 -58 -39 -102 -112 -102s-110 45 -110 102c0 58 37 102 110 102s112 -42 112 -102z" />
    <glyph glyph-name="hungarumlaut" unicode="&#x2dd;" horiz-adv-x="408" 
d="M250 565l-55 29l102 106l77 -53zM79 565l-55 29l102 106l77 -53z" />
    <glyph glyph-name="ogonek" unicode="&#x2db;" horiz-adv-x="250" 
d="M200 -78l20 -67c-21 -9 -48 -18 -85 -18c-66 0 -105 36 -105 101c0 57 30 104 55 132h76c-18 -39 -29 -75 -29 -113c0 -25 9 -42 32 -42c15 0 25 3 36 7z" />
    <glyph glyph-name="germandbls" unicode="&#xdf;" horiz-adv-x="530" 
d="M498 156c0 -117 -81 -166 -176 -166c-31 0 -80 10 -98 20l36 77c18 -7 26 -11 49 -11c26 0 60 15 60 75c0 42 -25 70 -55 85c-54 27 -90 57 -90 131c0 101 100 120 100 188c0 43 -22 67 -67 67c-33 0 -68 -21 -68 -86v-536h-125v529c0 111 73 181 193 181
c121 0 182 -74 182 -160c0 -104 -97 -119 -97 -177c0 -29 21 -41 44 -50c67 -25 112 -73 112 -167z" />
    <glyph glyph-name="quotedbl" unicode="&#x22;" horiz-adv-x="347" 
d="M153 610l-22 -160h-80l-22 160l3 90h118zM318 610l-22 -160h-80l-22 160l3 90h118z" />
    <glyph glyph-name="dotlessi" unicode="&#x131;" horiz-adv-x="253" 
d="M189 0h-125v500h125v-500z" />
    <glyph glyph-name="quotedblright" unicode="&#x201d;" horiz-adv-x="390" 
d="M182 600l-70 -150h-83l25 150l5 100h120zM361 600l-70 -150h-83l25 150l5 100h120z" />
    <glyph glyph-name="quotedblleft" unicode="&#x201c;" horiz-adv-x="390" 
d="M208 550l70 150h83l-25 -150l-5 -100h-120zM29 550l70 150h83l-25 -150l-5 -100h-120z" />
    <glyph glyph-name="quoteleft" unicode="&#x2018;" horiz-adv-x="211" 
d="M29 550l70 150h83l-25 -150l-5 -100h-120z" />
    <glyph glyph-name="dieresis" unicode="&#xa8;" horiz-adv-x="348" 
d="M321 580h-111l-3 95h117zM138 580h-111l-3 95h117z" />
    <glyph glyph-name="quoteright" unicode="&#x2019;" horiz-adv-x="211" 
d="M182 600l-70 -150h-83l25 150l5 100h120z" />
    <glyph glyph-name="tilde" unicode="&#x2dc;" horiz-adv-x="348" 
d="M244 661c26 0 42 11 54 19l26 -61c-27 -25 -60 -41 -86 -41c-47 0 -95 34 -134 34c-26 0 -42 -11 -54 -19l-26 61c27 25 60 41 86 41c47 0 95 -34 134 -34z" />
    <glyph glyph-name="macron" unicode="&#xaf;" horiz-adv-x="323" 
d="M299 602h-275v83h275v-83z" />
    <glyph glyph-name="cedilla" unicode="&#xb8;" horiz-adv-x="247" 
d="M20 -178l26 62c15 -4 30 -7 45 -7c21 0 30 9 30 20c0 12 -8 25 -71 25l27 128h75l-3 -82c56 -7 73 -43 73 -75c0 -58 -52 -86 -113 -86c-30 0 -61 5 -89 15z" />
    <glyph glyph-name="approxequal" unicode="&#x2248;" 
d="M292 327c-56 0 -85 39 -130 39c-35 0 -65 -17 -93 -36l-37 82c41 39 89 56 134 56c56 0 85 -39 130 -39c35 0 66 17 94 36l36 -82c-41 -39 -89 -56 -134 -56zM292 156c-56 0 -85 39 -130 39c-35 0 -65 -17 -93 -36l-37 82c41 39 89 56 134 56c56 0 85 -39 130 -39
c35 0 66 17 94 36l36 -82c-41 -39 -89 -56 -134 -56z" />
    <glyph glyph-name="guilsinglright" unicode="&#x203a;" horiz-adv-x="293" 
d="M135 92h-81l58 207l-58 207h81l104 -207z" />
    <glyph glyph-name="guillemotleft" unicode="&#xab;" horiz-adv-x="473" 
d="M239 92h-81l-104 207l104 207h81l-58 -207zM419 92h-81l-104 207l104 207h81l-58 -207z" />
    <glyph glyph-name="guillemotright" unicode="&#xbb;" horiz-adv-x="473" 
d="M315 92h-81l58 207l-58 207h81l104 -207zM135 92h-81l58 207l-58 207h81l104 -207z" />
    <glyph glyph-name="endash" unicode="&#x2013;" horiz-adv-x="538" 
d="M459 262h-380v101h380v-101z" />
    <glyph glyph-name="emdash" unicode="&#x2014;" horiz-adv-x="593" 
d="M534 262h-475v101h475v-101z" />
    <glyph glyph-name="periodcentered" unicode="&#xb7;" horiz-adv-x="238" 
d="M184 245h-130v130h130v-130z" />
    <glyph glyph-name="ellipsis" unicode="&#x2026;" horiz-adv-x="838" 
d="M204 0h-140l5 130h130zM484 0h-140l5 130h130zM774 0h-140l5 130h130z" />
    <glyph glyph-name="acute" unicode="&#xb4;" horiz-adv-x="261" 
d="M61 562l-27 59l164 79l39 -83z" />
    <glyph glyph-name="grave" unicode="`" horiz-adv-x="261" 
d="M238 621l-27 -59l-176 55l39 83z" />
    <glyph glyph-name="logicalnot" unicode="&#xac;" 
d="M415 116h-105v148h-267v97h372v-245z" />
    <glyph glyph-name="quotedblbase" unicode="&#x201e;" horiz-adv-x="390" 
d="M182 0l-70 -150h-83l25 150l5 100h120zM361 0l-70 -150h-83l25 150l5 100h120z" />
    <glyph glyph-name="quotesinglbase" unicode="&#x201a;" horiz-adv-x="211" 
d="M182 0l-70 -150h-83l25 150l5 100h120z" />
    <glyph glyph-name="aacute" unicode="&#xe1;" horiz-adv-x="490" 
d="M466 79l-26 -85c-63 3 -96 26 -110 71c-23 -42 -60 -75 -146 -75c-75 0 -150 41 -150 145c0 109 67 166 215 180l42 4v10c0 54 -12 90 -72 90c-46 0 -85 -12 -121 -26l-30 79c34 15 94 38 171 38c127 0 177 -75 177 -191v-184c0 -31 16 -51 50 -56zM222 74
c55 0 67 52 69 91v76l-47 -5c-53 -6 -83 -39 -83 -90c0 -52 29 -72 61 -72zM152 562l-27 59l164 79l39 -83z" />
    <glyph glyph-name="agrave" unicode="&#xe0;" horiz-adv-x="490" 
d="M466 79l-26 -85c-63 3 -96 26 -110 71c-23 -42 -60 -75 -146 -75c-75 0 -150 41 -150 145c0 109 67 166 215 180l42 4v10c0 54 -12 90 -72 90c-46 0 -85 -12 -121 -26l-30 79c34 15 94 38 171 38c127 0 177 -75 177 -191v-184c0 -31 16 -51 50 -56zM222 74
c55 0 67 52 69 91v76l-47 -5c-53 -6 -83 -39 -83 -90c0 -52 29 -72 61 -72zM338 621l-27 -59l-176 55l39 83z" />
    <glyph glyph-name="acircumflex" unicode="&#xe2;" horiz-adv-x="490" 
d="M466 79l-26 -85c-63 3 -96 26 -110 71c-23 -42 -60 -75 -146 -75c-75 0 -150 41 -150 145c0 109 67 166 215 180l42 4v10c0 54 -12 90 -72 90c-46 0 -85 -12 -121 -26l-30 79c34 15 94 38 171 38c127 0 177 -75 177 -191v-184c0 -31 16 -51 50 -56zM222 74
c55 0 67 52 69 91v76l-47 -5c-53 -6 -83 -39 -83 -90c0 -52 29 -72 61 -72zM274 700l109 -72l-32 -56l-115 50l-115 -50l-32 56l109 72h76z" />
    <glyph glyph-name="adieresis" unicode="&#xe4;" horiz-adv-x="490" 
d="M466 79l-26 -85c-63 3 -96 26 -110 71c-23 -42 -60 -75 -146 -75c-75 0 -150 41 -150 145c0 109 67 166 215 180l42 4v10c0 54 -12 90 -72 90c-46 0 -85 -12 -121 -26l-30 79c34 15 94 38 171 38c127 0 177 -75 177 -191v-184c0 -31 16 -51 50 -56zM222 74
c55 0 67 52 69 91v76l-47 -5c-53 -6 -83 -39 -83 -90c0 -52 29 -72 61 -72zM381 580h-111l-3 95h117zM198 580h-111l-3 95h117z" />
    <glyph glyph-name="atilde" unicode="&#xe3;" horiz-adv-x="490" 
d="M466 79l-26 -85c-63 3 -96 26 -110 71c-23 -42 -60 -75 -146 -75c-75 0 -150 41 -150 145c0 109 67 166 215 180l42 4v10c0 54 -12 90 -72 90c-46 0 -85 -12 -121 -26l-30 79c34 15 94 38 171 38c127 0 177 -75 177 -191v-184c0 -31 16 -51 50 -56zM222 74
c55 0 67 52 69 91v76l-47 -5c-53 -6 -83 -39 -83 -90c0 -52 29 -72 61 -72zM303 661c26 0 42 11 54 19l26 -61c-27 -25 -60 -41 -86 -41c-47 0 -95 34 -134 34c-26 0 -42 -11 -54 -19l-26 61c27 25 60 41 86 41c47 0 95 -34 134 -34z" />
    <glyph glyph-name="aring" unicode="&#xe5;" horiz-adv-x="490" 
d="M261 634c0 26 -12 41 -31 41s-30 -17 -30 -41c0 -22 11 -41 30 -41s31 16 31 41zM342 633c0 -58 -39 -102 -112 -102s-110 45 -110 102c0 58 37 102 110 102s112 -42 112 -102zM466 79l-26 -85c-63 3 -96 26 -110 71c-23 -42 -60 -75 -146 -75c-75 0 -150 41 -150 145
c0 109 67 166 215 180l42 4v10c0 54 -12 90 -72 90c-46 0 -85 -12 -121 -26l-30 79c34 15 94 38 171 38c127 0 177 -75 177 -191v-184c0 -31 16 -51 50 -56zM222 74c55 0 67 52 69 91v76l-47 -5c-53 -6 -83 -39 -83 -90c0 -52 29 -72 61 -72z" />
    <glyph glyph-name="eacute" unicode="&#xe9;" horiz-adv-x="461" 
d="M427 217h-258c5 -114 56 -137 105 -137c41 0 74 10 110 28l28 -80c-33 -18 -89 -38 -147 -38c-91 0 -221 37 -221 260c0 182 81 260 204 260c130 0 179 -92 179 -241v-52zM246 431c-43 0 -68 -34 -75 -131h143c0 78 -18 131 -68 131zM178 562l-27 59l164 79l39 -83z" />
    <glyph glyph-name="egrave" unicode="&#xe8;" horiz-adv-x="461" 
d="M427 217h-258c5 -114 56 -137 105 -137c41 0 74 10 110 28l28 -80c-33 -18 -89 -38 -147 -38c-91 0 -221 37 -221 260c0 182 81 260 204 260c130 0 179 -92 179 -241v-52zM246 431c-43 0 -68 -34 -75 -131h143c0 78 -18 131 -68 131zM353 621l-27 -59l-176 55l39 83z" />
    <glyph glyph-name="ecircumflex" unicode="&#xea;" horiz-adv-x="461" 
d="M427 217h-258c5 -114 56 -137 105 -137c41 0 74 10 110 28l28 -80c-33 -18 -89 -38 -147 -38c-91 0 -221 37 -221 260c0 182 81 260 204 260c130 0 179 -92 179 -241v-52zM246 431c-43 0 -68 -34 -75 -131h143c0 78 -18 131 -68 131zM280 700l109 -72l-32 -56l-115 50
l-115 -50l-32 56l109 72h76z" />
    <glyph glyph-name="edieresis" unicode="&#xeb;" horiz-adv-x="461" 
d="M427 217h-258c5 -114 56 -137 105 -137c41 0 74 10 110 28l28 -80c-33 -18 -89 -38 -147 -38c-91 0 -221 37 -221 260c0 182 81 260 204 260c130 0 179 -92 179 -241v-52zM246 431c-43 0 -68 -34 -75 -131h143c0 78 -18 131 -68 131zM394 580h-111l-3 95h117zM211 580
h-111l-3 95h117z" />
    <glyph glyph-name="iacute" unicode="&#xed;" horiz-adv-x="253" 
d="M189 0h-125v500h125v-500zM59 562l-27 59l164 79l39 -83z" />
    <glyph glyph-name="igrave" unicode="&#xec;" horiz-adv-x="253" 
d="M189 0h-125v500h125v-500zM229 621l-27 -59l-176 55l38 83z" />
    <glyph glyph-name="icircumflex" unicode="&#xee;" horiz-adv-x="253" 
d="M189 0h-125v500h125v-500zM165 700l109 -72l-32 -56l-115 50l-115 -50l-32 56l109 72h76z" />
    <glyph glyph-name="idieresis" unicode="&#xef;" horiz-adv-x="253" 
d="M189 0h-125v500h125v-500zM274 580h-111l-3 95h117zM91 580h-111l-3 95h117z" />
    <glyph glyph-name="paragraph" unicode="&#xb6;" horiz-adv-x="528" 
d="M474 0h-110v700h110v-700zM309 700v-700h-113v354c-72 3 -147 63 -147 169c0 158 121 179 198 179c27 0 49 -3 58 -3c3 0 4 0 4 1z" />
    <glyph glyph-name="mu" unicode="&#xb5;" horiz-adv-x="513" 
d="M64 500h125v-320c0 -64 4 -104 55 -104c45 0 78 36 80 117v307h125v-500h-95l-17 57c-27 -40 -63 -67 -109 -67c-22 0 -32 5 -39 8v-168h-125v670z" />
    <glyph glyph-name="ccedilla" unicode="&#xe7;" horiz-adv-x="394" 
d="M140 -178l26 62c15 -4 30 -7 45 -7c21 0 30 9 30 20c0 12 -8 25 -71 25l15 74c-85 19 -141 88 -141 251c0 197 94 263 209 263c43 0 82 -15 114 -32l-29 -77c-30 14 -51 20 -82 20c-53 0 -85 -41 -85 -176c0 -133 35 -163 85 -163c33 0 59 9 82 21l29 -81
c-24 -13 -59 -27 -97 -31l-1 -23c56 -7 73 -43 73 -75c0 -58 -52 -86 -113 -86c-30 0 -61 5 -89 15z" />
    <glyph glyph-name="florin" unicode="&#x192;" horiz-adv-x="299" 
d="M-62 -167l25 81c21 -7 31 -10 58 -10c42 0 53 31 53 71v434h-65v91h65v64c0 86 47 146 155 146c51 0 84 -10 106 -18l-25 -81c-21 7 -31 10 -58 10c-42 0 -53 -31 -53 -71v-50h96v-91h-96v-448c0 -86 -47 -146 -155 -146c-51 0 -84 10 -106 18z" />
    <glyph glyph-name="minus" unicode="&#x2212;" 
d="M414 262h-370v101h370v-101z" />
    <glyph glyph-name="divide" unicode="&#xf7;" 
d="M414 262h-370v101h370v-101zM299 63h-140l5 130h130zM159 563h140l-5 -130h-135v130z" />
    <glyph glyph-name="ntilde" unicode="&#xf1;" horiz-adv-x="527" 
d="M189 0h-125v500h95l18 -61c29 42 72 71 135 71c126 0 151 -85 151 -182v-328h-125v320c0 64 -6 104 -62 104c-46 0 -87 -38 -87 -124v-300zM348 661c26 0 42 11 54 19l26 -61c-27 -25 -60 -41 -86 -41c-47 0 -95 34 -134 34c-26 0 -42 -11 -54 -19l-26 61
c27 25 60 41 86 41c47 0 95 -34 134 -34z" />
    <glyph glyph-name="partialdiff" unicode="&#x2202;" horiz-adv-x="482" 
d="M39 225c0 138 42 239 164 239c45 0 79 -19 102 -43c-10 146 -49 201 -121 201c-29 0 -58 -7 -86 -19l-29 79c31 13 69 28 131 28c117 0 233 -87 233 -376c0 -285 -95 -344 -206 -344c-80 0 -188 48 -188 235zM230 77c47 0 78 40 78 256v3c-9 12 -30 35 -74 35
c-41 0 -70 -33 -70 -150c0 -99 27 -144 66 -144z" />
    <glyph glyph-name="scaron" unicode="&#x161;" horiz-adv-x="418" 
d="M372 141c0 -109 -92 -151 -193 -151c-68 0 -126 20 -147 30l31 84c30 -12 64 -23 104 -23c47 0 76 19 76 56c0 38 -31 51 -84 74c-58 25 -116 66 -116 157c0 92 73 142 177 142c71 0 111 -15 146 -32l-31 -84c-29 15 -60 27 -102 27s-64 -16 -64 -46c0 -29 22 -46 71 -66
c89 -37 132 -75 132 -168zM360 644l-109 -72h-76l-109 72l32 56l115 -50l115 50z" />
    <glyph glyph-name="oacute" unicode="&#xf3;" horiz-adv-x="524" 
d="M480 248c0 -177 -95 -258 -218 -258s-218 82 -218 258c0 179 95 262 218 262s218 -86 218 -262zM353 248c0 125 -31 176 -91 176s-91 -49 -91 -176c0 -117 31 -172 91 -172s91 61 91 172zM192 562l-27 59l164 79l39 -83z" />
    <glyph glyph-name="ograve" unicode="&#xf2;" horiz-adv-x="524" 
d="M480 248c0 -177 -95 -258 -218 -258s-218 82 -218 258c0 179 95 262 218 262s218 -86 218 -262zM353 248c0 125 -31 176 -91 176s-91 -49 -91 -176c0 -117 31 -172 91 -172s91 61 91 172zM371 621l-27 -59l-176 55l39 83z" />
    <glyph glyph-name="ocircumflex" unicode="&#xf4;" horiz-adv-x="524" 
d="M480 248c0 -177 -95 -258 -218 -258s-218 82 -218 258c0 179 95 262 218 262s218 -86 218 -262zM353 248c0 125 -31 176 -91 176s-91 -49 -91 -176c0 -117 31 -172 91 -172s91 61 91 172zM299 700l109 -72l-32 -56l-115 50l-115 -50l-32 56l109 72h76z" />
    <glyph glyph-name="odieresis" unicode="&#xf6;" horiz-adv-x="524" 
d="M480 248c0 -177 -95 -258 -218 -258s-218 82 -218 258c0 179 95 262 218 262s218 -86 218 -262zM353 248c0 125 -31 176 -91 176s-91 -49 -91 -176c0 -117 31 -172 91 -172s91 61 91 172zM409 580h-111l-3 95h117zM226 580h-111l-3 95h117z" />
    <glyph glyph-name="otilde" unicode="&#xf5;" horiz-adv-x="524" 
d="M480 248c0 -177 -95 -258 -218 -258s-218 82 -218 258c0 179 95 262 218 262s218 -86 218 -262zM353 248c0 125 -31 176 -91 176s-91 -49 -91 -176c0 -117 31 -172 91 -172s91 61 91 172zM332 661c26 0 42 11 54 19l26 -61c-27 -25 -60 -41 -86 -41c-47 0 -95 34 -134 34
c-26 0 -42 -11 -54 -19l-26 61c27 25 60 41 86 41c47 0 95 -34 134 -34z" />
    <glyph glyph-name="brokenbar" unicode="&#xa6;" horiz-adv-x="388" 
d="M134 -100v340h120v-340h-120zM134 410v340h120v-340h-120z" />
    <glyph glyph-name="multiply" unicode="&#xd7;" 
d="M42 193l116 117l-116 117l70 70l117 -116l117 116l70 -70l-116 -117l116 -117l-70 -70l-117 116l-117 -116z" />
    <glyph glyph-name="plusminus" unicode="&#xb1;" 
d="M414 0h-370v101h370v-101zM414 264h-132v-101h-104v101h-135v97h135v142h104v-142h132v-97z" />
    <glyph glyph-name="zcaron" unicode="&#x17e;" horiz-adv-x="426" 
d="M392 409l-218 -318h208v-91h-353v91l221 318h-201v91h343v-91zM374 644l-109 -72h-76l-109 72l32 56l115 -50l115 50z" />
    <glyph glyph-name="uacute" unicode="&#xfa;" horiz-adv-x="513" 
d="M64 500h125v-320c0 -64 4 -104 55 -104c46 0 80 38 80 124v300h125v-500h-95l-17 57c-27 -40 -68 -67 -129 -67c-123 0 -144 85 -144 182v328zM187 562l-27 59l164 79l39 -83z" />
    <glyph glyph-name="ugrave" unicode="&#xf9;" horiz-adv-x="513" 
d="M64 500h125v-320c0 -64 4 -104 55 -104c46 0 80 38 80 124v300h125v-500h-95l-17 57c-27 -40 -68 -67 -129 -67c-123 0 -144 85 -144 182v328zM363 621l-27 -59l-176 55l39 83z" />
    <glyph glyph-name="ucircumflex" unicode="&#xfb;" horiz-adv-x="513" 
d="M64 500h125v-320c0 -64 4 -104 55 -104c46 0 80 38 80 124v300h125v-500h-95l-17 57c-27 -40 -68 -67 -129 -67c-123 0 -144 85 -144 182v328zM292 700l109 -72l-32 -56l-115 50l-115 -50l-32 56l109 72h76z" />
    <glyph glyph-name="udieresis" unicode="&#xfc;" horiz-adv-x="513" 
d="M64 500h125v-320c0 -64 4 -104 55 -104c46 0 80 38 80 124v300h125v-500h-95l-17 57c-27 -40 -68 -67 -129 -67c-123 0 -144 85 -144 182v328zM404 580h-111l-3 95h117zM221 580h-111l-3 95h117z" />
    <glyph glyph-name="dagger" unicode="&#x2020;" 
d="M290 0h-120v413h-131v98h131v189h120v-189h130v-98h-130v-413z" />
    <glyph glyph-name="daggerdbl" unicode="&#x2021;" 
d="M290 0h-120v198h-131v98h131v117h-131v98h131v189h120v-189h130v-98h-130v-117h130v-98h-130v-198z" />
    <glyph glyph-name="notequal" unicode="&#x2260;" horiz-adv-x="408" 
d="M384 162h-213l-61 -110l-80 42l38 68h-44v101h100l56 99h-156v101h212l63 111l81 -41l-40 -70h44v-101h-100l-56 -99h156v-101z" />
    <glyph glyph-name="Oslash" unicode="&#xd8;" horiz-adv-x="566" 
d="M522 353c0 -235 -77 -363 -239 -363c-23 0 -43 3 -62 7l-27 -91l-83 22l32 108c-67 56 -99 163 -99 317c0 235 79 357 239 357c22 0 43 -3 62 -7l27 89l81 -19l-32 -107c67 -55 101 -160 101 -313zM393 353c0 71 -5 127 -15 168l-130 -435c10 -5 22 -7 35 -7
c76 0 110 59 110 274zM173 353c0 -72 5 -128 15 -170l130 431c-11 4 -22 7 -35 7c-76 0 -110 -78 -110 -268z" />
    <glyph glyph-name="oslash" unicode="&#xf8;" horiz-adv-x="524" 
d="M480 248c0 -177 -95 -258 -218 -258c-15 0 -28 2 -42 4l-28 -85l-80 23l30 91c-60 39 -98 113 -98 225c0 179 95 262 218 262c14 0 28 -1 42 -4l28 84l80 -23l-31 -92c60 -40 99 -115 99 -227zM171 248c0 -43 4 -77 12 -103l93 278c-5 0 -9 1 -14 1
c-60 0 -91 -49 -91 -176zM353 248c0 44 -4 79 -12 106l-93 -277c5 -1 9 -1 14 -1c60 0 91 61 91 172z" />
    <glyph glyph-name="Iacute" unicode="&#xcd;" horiz-adv-x="265" 
d="M56 732l-20 59l171 59l32 -83zM69 0v700h127v-700h-127z" />
    <glyph glyph-name="Icircumflex" unicode="&#xce;" horiz-adv-x="265" 
d="M164 850l114 -57l-32 -56l-115 40l-115 -40l-32 56l114 57h66zM69 0v700h127v-700h-127z" />
    <glyph glyph-name="Idieresis" unicode="&#xcf;" horiz-adv-x="265" 
d="M285 745h-111l-3 90h117zM102 745h-111l-3 90h117zM69 0v700h127v-700h-127z" />
    <glyph glyph-name="Igrave" unicode="&#xcc;" horiz-adv-x="265" 
d="M249 791l-20 -59l-183 35l32 83zM74 0v700h128v-700h-128z" />
    <glyph glyph-name="Odieresis" unicode="&#xd6;" horiz-adv-x="566" 
d="M430 745h-111l-3 90h117zM247 745h-111l-3 90h117zM393 353c0 190 -34 268 -110 268s-110 -78 -110 -268s34 -274 110 -274s110 59 110 274zM522 353c0 -235 -77 -363 -239 -363s-239 126 -239 363c0 235 79 357 239 357s239 -122 239 -357z" />
    <glyph glyph-name="Otilde" unicode="&#xd5;" horiz-adv-x="566" 
d="M353 816c26 0 42 11 54 19l26 -61c-27 -25 -60 -36 -86 -36c-47 0 -95 29 -134 29c-26 0 -42 -11 -54 -19l-26 56c27 25 60 41 86 41c47 0 95 -29 134 -29zM393 353c0 190 -34 268 -110 268s-110 -78 -110 -268s34 -274 110 -274s110 59 110 274zM522 353
c0 -235 -77 -363 -239 -363s-239 126 -239 363c0 235 79 357 239 357s239 -122 239 -357z" />
    <glyph glyph-name="Oacute" unicode="&#xd3;" horiz-adv-x="566" 
d="M210 732l-20 59l171 59l32 -83zM393 353c0 190 -34 268 -110 268s-110 -78 -110 -268s34 -274 110 -274s110 59 110 274zM522 353c0 -235 -77 -363 -239 -363s-239 126 -239 363c0 235 79 357 239 357s239 -122 239 -357z" />
    <glyph glyph-name="Ocircumflex" unicode="&#xd4;" horiz-adv-x="566" 
d="M319 850l114 -57l-32 -56l-115 40l-115 -40l-32 56l114 57h66zM393 353c0 190 -34 268 -110 268s-110 -78 -110 -268s34 -274 110 -274s110 59 110 274zM522 353c0 -235 -77 -363 -239 -363s-239 126 -239 363c0 235 79 357 239 357s239 -122 239 -357z" />
    <glyph glyph-name="Ograve" unicode="&#xd2;" horiz-adv-x="566" 
d="M393 791l-20 -59l-183 35l32 83zM393 353c0 190 -34 268 -110 268s-110 -78 -110 -268s34 -274 110 -274s110 59 110 274zM522 353c0 -235 -77 -363 -239 -363s-239 126 -239 363c0 235 79 357 239 357s239 -122 239 -357z" />
    <glyph glyph-name="Eacute" unicode="&#xc9;" horiz-adv-x="461" 
d="M181 732l-20 59l171 59l32 -83zM417 0h-348v700h348v-93h-221v-199h196v-93h-196v-222h221v-93z" />
    <glyph glyph-name="Ecircumflex" unicode="&#xca;" horiz-adv-x="461" 
d="M275 850l114 -57l-32 -56l-115 40l-115 -40l-32 56l114 57h66zM417 0h-348v700h348v-93h-221v-199h196v-93h-196v-222h221v-93z" />
    <glyph glyph-name="Edieresis" unicode="&#xcb;" horiz-adv-x="461" 
d="M385 745h-111l-3 90h117zM202 745h-111l-3 90h117zM417 0h-348v700h348v-93h-221v-199h196v-93h-196v-222h221v-93z" />
    <glyph glyph-name="Egrave" unicode="&#xc8;" horiz-adv-x="461" 
d="M338 791l-20 -59l-183 35l32 83zM417 0h-348v700h348v-93h-221v-199h196v-93h-196v-222h221v-93z" />
    <glyph glyph-name="Udieresis" unicode="&#xdc;" horiz-adv-x="553" 
d="M423 740h-111l-3 95h117zM240 740h-111l-3 95h117zM489 700v-495c0 -149 -97 -215 -212 -215s-213 67 -213 215v495h127v-499c0 -70 26 -120 86 -120s85 50 85 120v499h127z" />
    <glyph glyph-name="Uacute" unicode="&#xda;" horiz-adv-x="553" 
d="M200 732l-20 59l171 59l32 -83zM489 700v-495c0 -149 -97 -215 -212 -215s-213 67 -213 215v495h127v-499c0 -70 26 -120 86 -120s85 50 85 120v499h127z" />
    <glyph glyph-name="Ucircumflex" unicode="&#xdb;" horiz-adv-x="553" 
d="M307 850l114 -57l-32 -56l-115 40l-115 -40l-32 56l114 57h66zM489 700v-495c0 -149 -97 -215 -212 -215s-213 67 -213 215v495h127v-499c0 -70 26 -120 86 -120s85 50 85 120v499h127z" />
    <glyph glyph-name="Ugrave" unicode="&#xd9;" horiz-adv-x="553" 
d="M383 791l-20 -59l-183 35l32 83zM489 700v-495c0 -149 -97 -215 -212 -215s-213 67 -213 215v495h127v-499c0 -70 26 -120 86 -120s85 50 85 120v499h127z" />
    <glyph glyph-name="Ntilde" unicode="&#xd1;" horiz-adv-x="573" 
d="M344 816c26 0 42 11 54 19l26 -61c-27 -25 -60 -36 -86 -36c-47 0 -95 29 -134 29c-26 0 -42 -11 -54 -19l-26 56c27 25 60 41 86 41c47 0 95 -29 134 -29zM504 0h-181l-145 564v-564h-109v700h180l145 -563v563h110v-700z" />
    <glyph glyph-name="Ccedilla" unicode="&#xc7;" horiz-adv-x="450" 
d="M183 -178l26 62c15 -4 30 -7 45 -7c21 0 30 9 30 20c0 12 -8 25 -71 25l15 74c-112 25 -184 133 -184 355c0 282 109 359 255 359c46 0 95 -17 127 -35l-32 -87c-34 17 -63 27 -97 27c-67 0 -124 -35 -124 -261c0 -237 58 -269 119 -269c42 0 74 12 104 26l27 -87
c-25 -14 -63 -28 -110 -32l-1 -24c56 -7 73 -43 73 -75c0 -58 -52 -86 -113 -86c-30 0 -61 5 -89 15z" />
    <glyph glyph-name="Adieresis" unicode="&#xc4;" horiz-adv-x="527" 
d="M413 745h-111l-3 90h117zM230 745h-111l-3 90h117zM378 0l-31 159h-171l-31 -159h-131l169 700h164l166 -700h-135zM263 599l-67 -340h132z" />
    <glyph glyph-name="Agrave" unicode="&#xc0;" horiz-adv-x="527" 
d="M365 791l-20 -59l-183 35l32 83zM378 0l-31 159h-171l-31 -159h-131l169 700h164l166 -700h-135zM263 599l-67 -340h132z" />
    <glyph glyph-name="Atilde" unicode="&#xc3;" horiz-adv-x="527" 
d="M331 816c26 0 42 11 54 19l26 -61c-27 -25 -60 -36 -86 -36c-47 0 -95 29 -134 29c-26 0 -42 -11 -54 -19l-26 56c27 25 60 41 86 41c47 0 95 -29 134 -29zM378 0l-31 159h-171l-31 -159h-131l169 700h164l166 -700h-135zM263 599l-67 -340h132z" />
    <glyph glyph-name="Acircumflex" unicode="&#xc2;" horiz-adv-x="527" 
d="M293 850l114 -57l-32 -56l-115 40l-115 -40l-32 56l114 57h66zM378 0l-31 159h-171l-31 -159h-131l169 700h164l166 -700h-135zM263 599l-67 -340h132z" />
    <glyph glyph-name="Aacute" unicode="&#xc1;" horiz-adv-x="527" 
d="M181 732l-20 59l171 59l32 -83zM378 0l-31 159h-171l-31 -159h-131l169 700h164l166 -700h-135zM263 599l-67 -340h132z" />
    <glyph glyph-name="Aring" unicode="&#xc5;" horiz-adv-x="527" 
d="M377 771c0 -30 -10 -55 -30 -74l166 -697h-135l-31 159h-171l-31 -159h-131l168 698c-18 19 -27 44 -27 73c0 58 37 102 110 102s112 -42 112 -102zM263 599l-67 -340h132zM296 772c0 26 -12 41 -31 41s-30 -17 -30 -41c0 -22 11 -41 30 -41s31 16 31 41z" />
    <glyph glyph-name="lessequal" unicode="&#x2264;" 
d="M414 0h-370v101h370v-101zM414 137l-370 143v125l370 159v-120l-271 -99l271 -89v-119z" />
    <glyph glyph-name="greaterequal" unicode="&#x2265;" 
d="M414 0h-370v101h370v-101zM414 280l-370 -143v119l271 89l-271 99v120l370 -159v-125z" />
    <glyph glyph-name="Eth" unicode="&#xd0;" horiz-adv-x="553" 
d="M509 354c0 -281 -132 -354 -278 -354h-158v315h-54v95h54v290h158c137 0 278 -51 278 -346zM381 354c0 239 -80 253 -152 253h-28v-197h88v-95h-88v-222h30c70 0 150 45 150 261z" />
    <glyph glyph-name="degree" unicode="&#xb0;" horiz-adv-x="371" 
d="M247 546c0 54 -22 80 -61 80s-63 -26 -63 -80s24 -83 63 -83s61 29 61 83zM352 545c0 -87 -62 -163 -166 -163c-110 0 -167 77 -167 163s57 160 167 160s166 -73 166 -160z" />
    <glyph glyph-name="Zcaron" unicode="&#x17d;" horiz-adv-x="474" 
d="M385 794l-114 -57h-66l-114 57l32 56l115 -40l115 40zM440 599l-270 -502h260v-97h-401v101l271 502h-248v97h388v-101z" />
    <glyph glyph-name="Scaron" unicode="&#x160;" horiz-adv-x="463" 
d="M385 794l-114 -57h-66l-114 57l32 56l115 -40l115 40zM424 196c0 -141 -108 -206 -235 -206c-66 0 -128 20 -160 40l39 85c27 -13 72 -30 118 -30c69 0 110 41 110 101c0 71 -54 94 -135 144c-85 53 -121 108 -121 196c0 111 88 184 215 184c77 0 131 -26 159 -42
l-35 -83c-34 18 -65 32 -113 32c-50 0 -96 -25 -96 -79c0 -47 24 -72 111 -121c91 -51 143 -104 143 -221z" />
    <glyph glyph-name="lslash" unicode="&#x142;" horiz-adv-x="268" 
d="M265 88l10 -84c-14 -4 -39 -9 -73 -9c-89 0 -128 48 -128 139v174l-30 -19l-40 75l70 44v292h125v-212l33 21l40 -75l-73 -47v-254c0 -35 10 -48 40 -48c8 0 18 1 26 3z" />
    <glyph glyph-name="Lslash" unicode="&#x141;" horiz-adv-x="398" 
d="M394 0h-325v313l-40 -20l-36 80l76 38v289h127v-226l106 53l36 -80l-142 -71v-279h198v-97z" />
    <glyph glyph-name="Yacute" unicode="&#xdd;" horiz-adv-x="500" 
d="M184 732l-20 59l171 59l32 -83zM501 700l-188 -395v-305h-130v305l-184 395h142l112 -277l121 277h127z" />
    <glyph glyph-name="Ydieresis" unicode="&#x178;" horiz-adv-x="500" 
d="M404 745h-111l-3 90h117zM221 745h-111l-3 90h117zM501 700l-188 -395v-305h-130v305l-184 395h142l112 -277l121 277h127z" />
    <glyph glyph-name="ydieresis" unicode="&#xff;" horiz-adv-x="474" 
d="M455 500l-146 -544c-26 -99 -75 -134 -157 -134c-31 0 -57 5 -73 10l22 86c10 -3 23 -5 34 -5c35 0 44 16 53 49l11 38h-39l-141 500h138l86 -383l87 383h125zM387 580h-111l-3 95h117zM204 580h-111l-3 95h117z" />
    <glyph glyph-name="yacute" unicode="&#xfd;" horiz-adv-x="474" 
d="M455 500l-146 -544c-26 -99 -75 -134 -157 -134c-31 0 -57 5 -73 10l22 86c10 -3 23 -5 34 -5c35 0 44 16 53 49l11 38h-39l-141 500h138l86 -383l87 383h125zM181 562l-27 59l164 79l39 -83z" />
    <glyph glyph-name="eth" unicode="&#xf0;" horiz-adv-x="482" 
d="M39 225c0 138 42 239 164 239c45 0 79 -19 102 -43c-6 82 -21 135 -46 166l-34 -59l-81 37l33 57c-27 -1 -54 -8 -79 -19l-29 79c31 13 69 28 131 28c9 0 18 -1 27 -2l35 60l81 -37l-32 -54c70 -47 122 -150 122 -343c0 -285 -95 -344 -206 -344c-80 0 -188 48 -188 235z
M230 77c47 0 78 40 78 256v3c-9 12 -30 35 -74 35c-41 0 -70 -33 -70 -150c0 -99 27 -144 66 -144z" />
    <glyph glyph-name="space" unicode=" " horiz-adv-x="280" 
 />
    <glyph glyph-name="currency" unicode="&#xa4;" horiz-adv-x="646" 
d="M36 93l75 75c-23 37 -37 85 -37 142s14 104 37 141l-75 76l70 70l75 -75c43 29 95 43 142 43s98 -14 141 -43l76 75l70 -70l-76 -77c22 -37 36 -83 36 -140s-14 -104 -36 -141l76 -76l-70 -70l-75 75c-44 -29 -95 -43 -142 -43s-99 14 -142 42l-75 -74zM457 310
c0 130 -72 166 -134 166s-136 -36 -136 -166s78 -166 136 -166s134 36 134 166z" />
    <glyph glyph-name="uni00AD" unicode="&#xad;" horiz-adv-x="495" 
d="M410 262h-325v101h325v-101z" />
    <glyph glyph-name="uni02C9" unicode="&#x2c9;" horiz-adv-x="335" 
d="M305 602h-275v83h275v-83z" />
    <glyph glyph-name="uni03BC" unicode="&#x3bc;" horiz-adv-x="500" 
d="M70 500h125v-320c0 -64 4 -104 55 -104c45 0 78 36 80 117v307h125v-500h-95l-17 57c-27 -40 -63 -67 -109 -67c-22 0 -32 5 -39 8v-168h-125v670z" />
    <glyph glyph-name="Omega" unicode="&#x2126;" horiz-adv-x="548" 
d="M238 0h-188v98h61c-47 54 -69 141 -69 260c0 235 80 351 232 351c156 0 232 -116 232 -351c0 -119 -23 -206 -69 -260h63v-98h-188v98c57 23 70 140 70 255c0 191 -33 269 -108 269s-108 -79 -108 -269c0 -116 13 -233 72 -255v-98z" />
    <glyph glyph-name="uni2215" unicode="&#x2215;" horiz-adv-x="230" 
d="M325 810l-312 -910h-108l312 910h108z" />
    <glyph glyph-name="uni2219" unicode="&#x2219;" horiz-adv-x="250" 
d="M190 245h-130v130h130v-130z" />
    <glyph glyph-name="uni2224" unicode="&#x2224;" horiz-adv-x="250" 
d="M190 245h-130v130h130v-130z" />
    <glyph glyph-name="uni2227" unicode="&#x2227;" horiz-adv-x="250" 
d="M190 245h-130v130h130v-130z" />
    <glyph glyph-name="uni22C5" unicode="&#x22c5;" horiz-adv-x="250" 
d="M190 245h-130v130h130v-130z" />
    <glyph glyph-name="uni25AF" unicode="&#x25af;" horiz-adv-x="502" 
d="M65 0v700h372v-700h-372zM160 82h182v536h-182v-536z" />
    <glyph glyph-name="Delta" unicode="&#x2206;" horiz-adv-x="493" 
d="M494 0h-495l182 700h138zM354 95l-103 492l-112 -492h215z" />
    <glyph glyph-name="lozenge" unicode="&#x25ca;" horiz-adv-x="484" 
d="M460 350l-145 -350h-148l-143 350l145 350h146zM341 348l-99 261l-99 -258l99 -260z" />
    <glyph glyph-name="infinity" unicode="&#x221e;" horiz-adv-x="718" 
d="M364 225c-23 -48 -87 -82 -150 -82c-112 0 -185 65 -185 168s76 166 191 166c46 0 100 -20 135 -82c23 48 87 82 150 82c112 0 185 -65 185 -168s-76 -166 -191 -166c-46 0 -100 20 -135 82zM218 384c-48 0 -76 -30 -76 -73s27 -75 76 -75c46 0 90 26 90 93
c-16 39 -50 55 -90 55zM501 236c48 0 76 30 76 73s-27 75 -76 75c-46 0 -90 -26 -90 -93c16 -39 50 -55 90 -55z" />
    <glyph glyph-name="summation" unicode="&#x2211;" 
d="M431 -170h-405v99l158 338l-145 333v100h381v-98h-255l149 -335l-164 -340h281v-97z" />
    <glyph glyph-name="pi" unicode="&#x3c0;" horiz-adv-x="542" 
d="M224 0h-123v404h-72v96h494v-96h-82v-274c0 -35 7 -48 34 -48c8 0 14 1 22 3l10 -81c-14 -4 -35 -9 -69 -9c-89 0 -119 48 -119 139v270h-95v-404z" />
    <glyph glyph-name="product" unicode="&#x220f;" horiz-adv-x="552" 
d="M224 0h-126v603h-69v97h494v-97h-82v-470c0 -35 7 -48 34 -48c8 0 14 1 22 3l10 -84c-14 -4 -35 -9 -69 -9c-89 0 -122 48 -122 139v469h-92v-603z" />
    <glyph glyph-name="perthousand" unicode="&#x2030;" horiz-adv-x="1203" 
d="M259 516c0 90 -17 118 -52 118s-51 -27 -51 -118s16 -117 51 -117s52 27 52 117zM361 520c0 -125 -63 -195 -154 -195s-153 70 -153 195s62 187 153 187s154 -62 154 -187zM705 181c0 90 -17 118 -52 118s-51 -27 -51 -118s16 -117 51 -117s52 27 52 117zM807 185
c0 -125 -63 -195 -154 -195s-153 70 -153 195s62 187 153 187s154 -62 154 -187zM1047 181c0 90 -17 118 -52 118s-51 -27 -51 -118s16 -117 51 -117s52 27 52 117zM1149 185c0 -125 -63 -195 -154 -195s-153 70 -153 195s62 187 153 187s154 -62 154 -187zM610 700
l-252 -700h-110l252 700h110z" />
    <glyph glyph-name="ordfeminine" unicode="&#xaa;" horiz-adv-x="383" 
d="M369 383l-8 -65c-47 0 -84 13 -99 48c-19 -27 -50 -49 -101 -49c-54 0 -107 30 -107 112c0 88 73 120 169 130l14 1v10c0 48 -15 62 -54 62c-27 0 -56 -8 -83 -19l-20 65c26 11 67 27 126 27c92 0 135 -44 135 -131v-153c0 -24 4 -34 28 -38zM350 0h-281v101h281v-101z
M196 386c29 0 41 28 41 58v50l-25 -3c-37 -4 -52 -22 -52 -57c0 -24 9 -48 36 -48z" />
    <glyph glyph-name="ordmasculine" unicode="&#xba;" horiz-adv-x="404" 
d="M368 0h-306v101h306v-101zM381 512c0 -141 -70 -195 -164 -195s-164 57 -164 195c0 139 71 193 164 193s164 -54 164 -193zM275 512c0 96 -22 123 -58 123s-58 -27 -58 -123s22 -126 58 -126s58 30 58 126z" />
    <glyph glyph-name="caron" unicode="&#x2c7;" horiz-adv-x="354" 
d="M324 644l-109 -72h-76l-109 72l32 56l115 -50l115 50z" />
    <glyph glyph-name="section" unicode="&#xa7;" 
d="M404 351c0 -50 -26 -89 -65 -115c35 -27 53 -59 53 -108c0 -92 -73 -139 -177 -139c-65 0 -115 17 -146 31l31 85c29 -15 57 -27 102 -27c42 0 64 15 64 45c0 23 -22 42 -64 59c-102 41 -148 87 -148 166c0 49 26 88 65 114c-35 27 -53 60 -53 109c0 92 73 139 177 139
c65 0 115 -17 146 -31l-31 -85c-29 15 -57 27 -102 27c-42 0 -64 -15 -64 -45c0 -23 22 -42 64 -59c102 -41 148 -87 148 -166zM178 355c0 -29 15 -46 62 -67c24 11 40 31 40 56c0 29 -15 45 -62 66c-25 -10 -40 -30 -40 -55z" />
    <glyph glyph-name="Euro" unicode="&#x20ac;" 
d="M392 398h-179c-1 -14 -1 -29 -1 -44c0 -18 0 -35 1 -51h158l-17 -81h-135c17 -118 58 -137 105 -137c50 0 73 11 103 25v-92c-22 -11 -53 -28 -111 -28c-116 0 -195 69 -220 232h-86l17 81h61c-1 15 -1 31 -1 48c0 16 0 32 1 47h-78l17 81h68c27 178 115 231 236 231
c48 0 88 -13 119 -32l-19 -91c-35 19 -59 28 -102 28c-52 0 -94 -21 -110 -136h190z" />
    <glyph glyph-name="dollar" unicode="$" 
d="M271 -110h-100v101c-55 5 -98 22 -126 40l39 84c27 -13 62 -30 108 -30c70 0 101 41 101 101s-41 89 -99 120c-122 65 -154 129 -154 218c0 82 46 152 131 176v124h100v-115c59 -6 95 -27 119 -41l-35 -83c-34 18 -55 32 -103 32c-50 0 -83 -34 -83 -84
c0 -43 17 -72 64 -96c136 -70 185 -122 185 -241c0 -107 -60 -174 -147 -196v-110z" />
    <glyph glyph-name="sterling" unicode="&#xa3;" 
d="M210 97h201v-97h-385v97h57v238h-57v94h57v32c0 169 63 249 210 249c46 0 95 -12 130 -29l-32 -87c-29 12 -53 21 -87 21c-68 0 -94 -43 -94 -148v-38h161v-94h-161v-238z" />
    <glyph glyph-name="yen" unicode="&#xa5;" 
d="M414 275h-121v-60h121v-95h-121v-120h-130v120h-119v95h119v60h-119v95h95l-130 330h142l82 -283l90 283h127l-133 -330h97v-95z" />
    <glyph glyph-name="integral" unicode="&#x222b;" horiz-adv-x="335" 
d="M-29 -118l25 81c21 -7 31 -10 58 -10c42 0 53 31 53 71v655c0 86 47 146 155 146c51 0 84 -10 106 -18l-25 -81c-21 7 -31 10 -58 10c-42 0 -53 -31 -53 -71v-655c0 -86 -47 -146 -155 -146c-51 0 -84 10 -106 18z" />
    <glyph glyph-name="thorn" unicode="&#xfe;" horiz-adv-x="507" 
d="M189 -170h-125v870h125v-243c25 31 62 53 118 53c97 0 156 -71 156 -228c0 -200 -64 -292 -228 -292c-16 0 -31 1 -46 2v-162zM264 425c-48 0 -75 -53 -75 -105v-244c13 -2 29 -2 46 -2c74 0 101 68 101 198c0 101 -18 153 -72 153z" />
    <glyph glyph-name="questiondown" unicode="&#xbf;" horiz-adv-x="396" 
d="M29 -47c0 68 24 109 89 189c31 39 37 62 37 130h119c0 -95 -7 -131 -53 -184c-50 -58 -63 -94 -63 -131c0 -51 34 -71 74 -71c31 0 74 12 104 26l31 -80c-32 -15 -88 -39 -154 -39c-91 0 -184 41 -184 160zM138 500h150l-10 -130h-130z" />
    <glyph glyph-name="exclamdown" unicode="&#xa1;" horiz-adv-x="268" 
d="M74 272h120l10 -472h-140zM64 500h140l-5 -130h-130z" />
    <glyph glyph-name="trademark" unicode="&#x2122;" horiz-adv-x="726" 
d="M682 280h-87l-22 326l-44 -326h-105l-46 325l-18 -325h-90l19 344h-92v-344h-97v344h-81v76h420l39 -309l35 309h145z" />
    <glyph glyph-name="Thorn" unicode="&#xde;" horiz-adv-x="523" 
d="M69 0v700h127v-112h36c165 0 247 -94 247 -221c0 -152 -70 -235 -245 -235h-38v-132h-127zM350 360c0 90 -35 136 -106 136h-48v-271h48c56 0 106 39 106 135z" />
    <glyph glyph-name="registered" unicode="&#xae;" horiz-adv-x="602" 
d="M528 493c0 -173 -120 -242 -227 -242s-227 69 -227 242s120 242 227 242s227 -69 227 -242zM448 493c0 140 -72 177 -147 177s-146 -37 -146 -177s71 -177 146 -177s147 37 147 177zM387 552c0 -36 -17 -58 -40 -70l25 -49c8 -15 13 -17 26 -20l-8 -46
c-35 0 -57 12 -70 40l-29 62h-9v-98h-58v259h66c62 0 97 -25 97 -78zM326 550c0 27 -10 37 -36 37h-8v-76h8c21 0 36 7 36 39z" />
    <glyph glyph-name="copyright" unicode="&#xa9;" horiz-adv-x="831" 
d="M757 360c0 -263 -168 -375 -342 -375s-342 112 -342 375s168 375 342 375s342 -112 342 -375zM649 360c0 209 -98 291 -234 291s-234 -82 -234 -291s96 -291 234 -291s234 82 234 291zM498 231l17 -67c-19 -8 -57 -20 -85 -20c-95 0 -155 62 -155 217
c0 169 66 215 161 215c24 0 64 -11 81 -20l-20 -63c-20 8 -43 13 -63 13c-42 0 -66 -22 -66 -144c0 -117 22 -144 62 -144c23 0 49 7 68 13z" />
    <glyph glyph-name="radical" unicode="&#x221a;" horiz-adv-x="570" 
d="M636 810v-93h-99l-200 -717h-145l-128 347l115 32l82 -279l184 710h191z" />
    <glyph glyph-name="ampersand" unicode="&#x26;" horiz-adv-x="642" 
d="M472 385l92 -36l-76 -180l45 -50c24 -26 46 -36 80 -48l-27 -81c-54 2 -93 8 -138 61l-16 17c-33 -40 -87 -78 -174 -78c-119 0 -209 79 -209 196c0 84 40 138 110 190c-53 61 -81 101 -81 168c0 81 56 166 184 166c113 0 175 -69 175 -159c0 -77 -43 -128 -124 -185
l104 -117zM270 82c44 0 76 30 97 60l-142 160c-41 -37 -52 -72 -52 -109c0 -64 30 -111 97 -111zM198 550c0 -30 11 -60 52 -111c67 51 74 88 74 114c0 51 -23 76 -62 76c-45 0 -64 -29 -64 -79z" />
    <glyph glyph-name="percent" unicode="%" horiz-adv-x="861" 
d="M259 516c0 90 -17 118 -52 118s-51 -27 -51 -118s16 -117 51 -117s52 27 52 117zM361 520c0 -125 -63 -195 -154 -195s-153 70 -153 195s62 187 153 187s154 -62 154 -187zM610 700l-252 -700h-110l252 700h110zM705 181c0 90 -17 118 -52 118s-51 -27 -51 -118
s16 -117 51 -117s52 27 52 117zM807 185c0 -125 -63 -195 -154 -195s-153 70 -153 195s62 187 153 187s154 -62 154 -187z" />
    <glyph glyph-name="fraction" unicode="&#x2044;" horiz-adv-x="218" 
d="M319 810l-312 -910h-108l312 910h108z" />
    <glyph glyph-name="onehalf" unicode="&#xbd;" horiz-adv-x="784" 
d="M288 300h-229v76h79v239l-63 -36l-41 66l104 55h99v-324h51v-76zM750 0h-261v79l82 85c46 47 71 76 71 112s-19 55 -57 55c-23 0 -52 -8 -71 -16l-27 69c15 7 56 24 113 24c85 0 148 -43 148 -126c0 -63 -20 -97 -68 -146l-56 -57h126v-79zM600 810l-312 -910h-108
l309 910h111z" />
    <glyph glyph-name="onequarter" unicode="&#xbc;" horiz-adv-x="748" 
d="M714 94h-48v-94h-96v94h-132v75l68 237l94 -10l-64 -229h38l13 87h79v-87h48v-73zM288 300h-229v76h79v239l-63 -36l-41 66l104 55h99v-324h51v-76zM598 810l-312 -910h-108l312 910h108z" />
    <glyph glyph-name="onesuperior" unicode="&#xb9;" horiz-adv-x="368" 
d="M317 300h-241v76h79v239l-63 -36l-41 66l104 55h99v-324h63v-76z" />
    <glyph glyph-name="threequarters" unicode="&#xbe;" horiz-adv-x="728" 
d="M295 411c0 -83 -69 -119 -152 -119c-53 0 -83 8 -109 17l25 71c18 -6 38 -11 60 -11c41 0 69 16 69 50c0 32 -18 53 -61 53h-27v73h20c42 0 59 18 59 44c0 27 -19 44 -53 44c-25 0 -47 -6 -65 -12l-23 69c29 10 64 18 108 18c96 0 140 -46 140 -110
c0 -43 -27 -73 -66 -86c40 -8 75 -41 75 -101zM694 94h-48v-94h-96v94h-132v75l68 237l94 -10l-64 -229h38l13 87h79v-87h48v-73zM582 810l-312 -910h-108l312 910h108z" />
    <glyph glyph-name="threesuperior" unicode="&#xb3;" horiz-adv-x="368" 
d="M314 411c0 -83 -69 -119 -152 -119c-53 0 -83 8 -109 17l25 71c18 -6 38 -11 60 -11c41 0 69 16 69 50c0 32 -18 53 -61 53h-27v73h20c42 0 59 18 59 44c0 27 -19 44 -53 44c-25 0 -47 -6 -65 -12l-23 69c29 10 64 18 108 18c96 0 140 -46 140 -110
c0 -43 -27 -73 -66 -86c40 -8 75 -41 75 -101z" />
    <glyph glyph-name="twosuperior" unicode="&#xb2;" horiz-adv-x="368" 
d="M315 300h-261v79l82 85c46 47 71 76 71 112s-19 55 -57 55c-23 0 -52 -8 -71 -16l-27 69c15 7 56 24 113 24c85 0 148 -43 148 -126c0 -63 -20 -97 -68 -146l-56 -57h126v-79z" />
    <glyph glyph-name="AE" unicode="&#xc6;" horiz-adv-x="733" 
d="M689 0h-313l-17 159h-171l-45 -159h-129l219 700h431v-93h-231l25 -199h196v-93h-185l27 -222h193v-93zM313 603l-97 -344h133z" />
    <glyph glyph-name="ae" unicode="&#xe6;" horiz-adv-x="700" 
d="M666 231h-258c1 -126 54 -151 105 -151c38 0 74 10 110 28l28 -80c-33 -18 -89 -38 -147 -38c-57 0 -120 14 -160 79c-24 -45 -67 -79 -154 -79c-77 0 -156 47 -156 151c0 109 67 151 215 165l42 4v19c0 54 -12 90 -72 90c-46 0 -85 -12 -121 -26l-30 79
c34 15 94 38 171 38c57 0 97 -18 123 -48c30 33 73 48 128 48c126 0 176 -91 176 -234v-45zM222 74c60 0 69 61 69 101v55l-47 -5c-50 -5 -83 -25 -83 -75c0 -52 32 -76 61 -76zM487 431c-44 0 -68 -32 -76 -120h142c0 78 -15 120 -66 120z" />
    <glyph glyph-name="OE" unicode="&#x152;" horiz-adv-x="779" 
d="M735 0h-380c-22 -6 -46 -10 -72 -10c-162 0 -239 126 -239 363c0 235 79 357 239 357c26 0 50 -4 72 -10h380v-93h-268c28 -49 44 -116 48 -199h195v-93h-194c-3 -94 -19 -168 -50 -222h269v-93zM393 353c0 190 -34 268 -110 268s-110 -78 -110 -268s34 -274 110 -274
s110 59 110 274z" />
    <glyph glyph-name="oe" unicode="&#x153;" horiz-adv-x="759" 
d="M725 217h-258c5 -114 56 -137 105 -137c38 0 74 10 110 28l28 -80c-33 -18 -89 -38 -147 -38c-48 0 -109 12 -151 65c-35 -44 -86 -65 -150 -65c-123 0 -218 82 -218 258c0 179 95 262 218 262c61 0 110 -21 145 -64c33 44 81 64 142 64c126 0 176 -92 176 -241v-52z
M353 248c0 125 -31 176 -91 176s-91 -49 -91 -176c0 -117 31 -172 91 -172s91 61 91 172zM546 431c-45 0 -70 -34 -77 -131h143c0 78 -15 131 -66 131z" />
    <glyph glyph-name="apple" unicode="&#xf8ff;" horiz-adv-x="1338" 
d="M194 -130v950h950v-950h-950zM884 25h117l-65 650h-175l-87 -487l-95 487h-169l-69 -650h113l50 535l105 -535h122l102 537z" />
    </font>
</defs>
</svg>
